# Blender 4.3.2
# www.blender.org
o Model
v 0.971920 0.708457 -0.019236
v 1.236606 0.443904 -0.146481
v 1.264442 0.229407 -0.193142
v 1.246571 0.089123 -0.223106
v 1.214813 -0.001567 -0.214929
v 1.009475 0.728717 0.143458
v 1.181245 0.604788 0.116623
v 1.366573 0.338931 0.131659
v 1.413654 0.154707 0.151568
v 1.403213 0.043303 0.155136
v 0.950413 0.700543 0.296031
v 1.116860 0.443904 0.343573
v 1.183662 0.229407 0.430084
v 1.218652 0.089123 0.502576
v 1.208131 -0.001567 0.512973
v 0.751201 0.737679 0.398215
v 0.704011 0.595891 0.571292
v 0.630959 0.357195 0.629905
v 0.642970 0.145601 0.642462
v 0.695675 -0.038364 0.614132
v 0.739569 0.787721 0.155136
v 0.541662 0.754514 0.329275
v 0.424692 0.577545 0.456754
v 0.393735 0.280417 0.498145
v 0.315750 0.089895 0.522850
v 0.303098 -0.001567 0.514234
v 0.737162 -0.089402 0.153957
v 0.438757 0.761784 0.155136
v 0.207259 0.643314 0.155136
v 0.083285 0.342238 0.155136
v 0.066813 0.154707 0.155136
v 0.075160 0.043303 0.155136
v 0.516611 0.754856 -0.021391
v 0.407414 0.578062 -0.166012
v 0.434201 0.280417 -0.217601
v 0.355394 0.089895 -0.236444
v 0.330264 -0.001567 -0.220926
v 0.738442 0.740219 -0.099244
v 0.697617 0.598202 -0.293501
v 0.653189 0.357195 -0.364475
v 0.669196 0.145601 -0.399958
v 0.704057 -0.038364 -0.377378
v 0.255231 0.849728 -0.189325
v 0.542999 0.521188 -0.327921
v 0.573263 0.287984 -0.378650
v 0.553834 0.135467 -0.411228
v 0.519306 0.036868 -0.402337
v 0.296061 0.879257 0.000000
v 0.482811 0.698327 0.000000
v 0.684301 0.407060 0.000000
v 0.735487 0.206771 0.000000
v 0.724136 0.085651 0.000000
v 0.231848 0.849728 0.189325
v 0.412811 0.521188 0.327921
v 0.485438 0.287984 0.378650
v 0.523481 0.135467 0.411228
v 0.512042 0.036868 0.402337
v 0.001392 0.897754 0.267746
v -0.045275 0.690561 0.463750
v -0.091296 0.426917 0.535492
v -0.073893 0.196870 0.581564
v -0.035991 -0.003138 0.568991
v 0.000000 0.994855 0.000000
v -0.240948 0.907147 0.189325
v -0.358504 0.667536 0.327921
v -0.329381 0.343443 0.378650
v -0.415060 0.136307 0.411228
v -0.442382 0.036868 0.402337
v 0.000000 -0.058627 0.000000
v -0.340752 0.907147 0.000000
v -0.589796 0.737987 0.000000
v -0.710911 0.410656 0.000000
v -0.727991 0.206771 0.000000
v -0.719710 0.085651 0.000000
v -0.240948 0.907147 -0.189325
v -0.358504 0.667536 -0.312284
v -0.329381 0.343443 -0.339005
v -0.415060 0.136307 -0.401600
v -0.442382 0.036868 -0.401578
v 0.001392 0.897754 -0.267318
v -0.042994 0.690561 -0.419809
v -0.091296 0.426917 -0.451686
v -0.073893 0.196870 -0.528492
v -0.035991 -0.003138 -0.556666
v -0.996319 0.680190 0.085538
v -1.239812 0.471200 0.240068
v -1.215427 0.282647 0.285977
v -1.176836 0.133289 0.315458
v -1.139592 0.028932 0.307413
v -1.036048 0.737835 -0.093628
v -1.216696 0.587541 -0.059527
v -1.378380 0.337341 -0.056688
v -1.403851 0.155547 -0.056688
v -1.387066 0.042022 -0.056688
v -0.969755 0.680232 -0.244874
v -1.133034 0.412075 -0.347870
v -1.188617 0.213671 -0.399353
v -1.221734 0.076769 -0.428835
v -1.211382 -0.010572 -0.420789
v -0.749416 0.686433 -0.301868
v -0.707030 0.460712 -0.415071
v -0.665383 0.317672 -0.502580
v -0.681132 0.217027 -0.576271
v -0.715432 0.072526 -0.571605
v -0.749038 0.813699 -0.122453
v -0.529953 0.723404 -0.242228
v -0.423569 0.500990 -0.326612
v -0.449924 0.257744 -0.387057
v -0.372387 0.105275 -0.428835
v -0.347663 0.013446 -0.420790
v -0.749692 -0.096854 -0.056688
v -0.439634 0.757012 -0.086112
v -0.214258 0.620878 -0.056689
v -0.104653 0.324654 -0.056689
v -0.089196 0.140145 -0.056689
v -0.096690 0.030536 -0.056689
v -0.530354 0.719256 0.080290
v -0.485001 0.489980 0.225694
v -0.575664 0.236111 0.250099
v -0.443468 0.076378 0.306745
v -0.385091 -0.013610 0.306725
v -0.766312 0.673242 0.149281
v -0.859260 0.432042 0.323096
v -0.866796 0.250359 0.352071
v -0.847493 0.115983 0.421578
v -0.797646 -0.049815 0.447075
v -0.416946 0.452405 0.441173
v -0.584844 0.284826 0.569584
v -0.595522 0.132856 0.624922
v -0.575744 0.027168 0.653697
v -0.548553 -0.041157 0.647636
v -0.412390 0.493514 0.294675
v -0.521161 0.398022 0.305455
v -0.664109 0.215370 0.346958
v -0.713036 0.076578 0.365611
v -0.711189 -0.007353 0.368825
v -0.358663 0.492165 0.174641
v -0.476238 0.294398 0.107896
v -0.536939 0.132856 0.098650
v -0.571636 0.027168 0.083803
v -0.567252 -0.041157 0.090030
v -0.210509 0.528776 0.149655
v -0.179613 0.410128 0.034591
v -0.150969 0.229130 -0.002871
v -0.163439 0.069717 -0.034166
v -0.189704 -0.068880 -0.025453
v -0.236676 0.555154 0.328389
v -0.054525 0.532476 0.234550
v 0.033704 0.392480 0.147143
v 0.013603 0.171286 0.108103
v 0.072975 0.027749 0.083870
v 0.091908 -0.041157 0.090031
v -0.195273 -0.107332 0.369337
v -0.003934 0.518899 0.386550
v 0.187040 0.435671 0.392532
v 0.277808 0.217862 0.382112
v 0.289823 0.076578 0.374046
v 0.284085 -0.007353 0.370477
v -0.106885 0.489992 0.517967
v -0.010504 0.352069 0.636170
v 0.016155 0.160221 0.642072
v 0.099656 0.027749 0.665017
v 0.120420 -0.041157 0.656449
v -0.281661 0.462496 0.533645
v -0.248176 0.340818 0.674555
v -0.162030 0.199225 0.713788
v -0.120406 0.067516 0.754027
v -0.123593 -0.068880 0.759271
vn 0.3015 0.1728 -0.9377
vn 0.3519 0.6921 -0.6302
vn 0.2944 -0.1031 -0.9501
vn 0.3111 0.2270 -0.9229
vn 0.1932 0.9643 -0.1809
vn 0.1036 -0.9894 -0.1015
vn 0.8941 -0.2097 -0.3957
vn 0.8771 0.4061 -0.2566
vn 0.2037 0.9647 -0.1671
vn 0.1953 -0.9805 0.0194
vn 0.9209 0.0946 -0.3781
vn 0.5727 0.7627 -0.3005
vn 0.8784 -0.0583 0.4743
vn 0.6770 0.4743 0.5628
vn 0.2170 0.9415 0.2578
vn 0.1954 -0.9806 -0.0164
vn 0.7666 0.3476 0.5398
vn 0.6336 0.5903 0.5001
vn 0.2156 -0.0306 0.9760
vn 0.4537 0.2661 0.8505
vn 0.2695 0.9457 0.1818
vn 0.0943 -0.9885 0.1181
vn 0.3172 0.2626 0.9113
vn 0.5236 0.5273 0.6692
vn -0.4538 0.2478 0.8560
vn 0.0125 0.9795 0.2010
vn -0.1178 -0.9881 0.0990
vn -0.4318 0.1532 0.8889
vn -0.2426 0.7287 0.6404
vn -0.2835 -0.1679 0.9442
vn -0.0855 0.9921 0.0920
vn -0.1965 -0.9805 0.0022
vn -0.7452 0.2272 0.6270
vn -0.4814 0.7578 0.4405
vn -0.8365 -0.0055 0.5480
vn -0.7292 0.2334 0.6433
vn -0.1966 -0.9804 -0.0164
vn -0.7308 0.2165 -0.6473
vn -0.5018 0.7710 -0.3921
vn -0.8143 0.0230 -0.5800
vn -0.7547 0.1769 -0.6318
vn -0.0856 0.9934 -0.0768
vn -0.1334 -0.9873 -0.0865
vn -0.5294 0.1943 -0.8258
vn -0.2498 0.7580 -0.6025
vn -0.4147 -0.1390 -0.8993
vn -0.4944 0.2082 -0.8439
vn 0.0004 0.9830 -0.1836
vn 0.1811 0.2695 -0.9458
vn 0.3008 0.5572 -0.7740
vn 0.2244 0.0653 -0.9723
vn 0.1668 0.1558 -0.9736
vn 0.2718 0.9050 -0.3273
vn 0.1005 -0.9894 -0.1051
vn 0.8957 -0.2030 -0.3955
vn 0.8802 0.4118 -0.2360
vn 0.3549 0.9090 -0.2183
vn 0.1954 -0.9805 0.0194
vn 0.9217 0.1171 -0.3698
vn 0.6728 0.6954 -0.2527
vn 0.8879 -0.1102 0.4466
vn 0.7602 0.4433 0.4751
vn 0.3513 0.8996 0.2594
vn 0.1954 -0.9806 -0.0159
vn 0.8310 0.2558 0.4939
vn 0.6791 0.6037 0.4174
vn 0.2812 -0.0440 0.9586
vn 0.3303 0.2425 0.9122
vn 0.2974 0.8980 0.3241
vn 0.1035 -0.9893 0.1030
vn 0.2978 0.2335 0.9257
vn 0.4019 0.5554 0.7280
vn -0.4888 0.1914 0.8511
vn -0.0738 0.9374 0.3403
vn -0.1332 -0.9872 0.0878
vn -0.5213 0.2293 0.8220
vn -0.2902 0.6397 0.7118
vn -0.4078 -0.0796 0.9096
vn -0.2471 0.9602 0.1303
vn -0.1965 -0.9804 0.0166
vn -0.7106 0.2303 0.6649
vn -0.5771 0.6740 0.4612
vn -0.8054 0.0457 0.5910
vn -0.7312 0.1550 0.6644
vn -0.1965 -0.9804 -0.0166
vn -0.6758 0.2732 -0.6845
vn -0.5791 0.6624 -0.4753
vn -0.7990 0.0689 -0.5974
vn -0.7085 0.1285 -0.6939
vn -0.2471 0.9602 -0.1303
vn -0.1315 -0.9872 -0.0899
vn -0.4300 0.3345 -0.8386
vn -0.2709 0.5744 -0.7724
vn -0.3537 0.0752 -0.9323
vn -0.3848 0.1040 -0.9171
vn -0.0734 0.9373 -0.3408
vn -0.2168 0.2818 0.9346
vn -0.1318 0.6465 0.7514
vn -0.3499 -0.0524 0.9353
vn -0.1792 0.1872 0.9658
vn -0.0985 0.8866 0.4520
vn -0.2496 -0.9661 0.0664
vn -0.8241 -0.2236 0.5204
vn -0.9065 0.3149 0.2812
vn -0.2081 0.9167 0.3411
vn -0.2116 -0.9713 0.1089
vn -0.8775 0.0079 0.4796
vn -0.5328 0.7893 0.3053
vn -0.9003 -0.1382 -0.4129
vn -0.7449 0.4172 -0.5206
vn -0.2704 0.8543 -0.4439
vn -0.2127 -0.9764 0.0384
vn -0.8445 0.2012 -0.4963
vn -0.6143 0.5910 -0.5229
vn -0.2715 -0.0247 -0.9621
vn -0.2219 0.3754 -0.8999
vn -0.1700 0.8039 -0.5699
vn 0.0654 -0.9492 -0.3079
vn -0.2995 0.4313 -0.8511
vn -0.2054 0.4342 -0.8771
vn 0.3668 0.3454 -0.8638
vn 0.0198 0.8155 -0.5785
vn -0.0238 -0.9492 -0.3138
vn 0.5139 0.4567 -0.7262
vn 0.1886 0.4479 -0.8740
vn 0.3887 -0.0652 -0.9190
vn 0.2069 0.9250 -0.3188
vn 0.1908 -0.9779 -0.0856
vn 0.6966 0.2744 -0.6629
vn 0.5424 0.5931 -0.5951
vn 0.8070 0.0455 -0.5887
vn 0.6925 0.1850 -0.6973
vn 0.1914 -0.9810 0.0327
vn 0.5475 0.3592 0.7558
vn 0.4647 0.6380 0.6140
vn 0.7226 0.1842 0.6663
vn 0.6108 0.0561 0.7898
vn 0.1393 0.9466 0.2907
vn 0.1219 -0.9871 0.1038
vn 0.2929 0.5004 0.8148
vn 0.1321 0.5474 0.8264
vn 0.2920 0.2164 0.9316
vn 0.2834 0.0535 0.9575
vn -0.0397 0.8887 0.4568
vn -0.2281 0.2169 0.9492
vn -0.3511 0.7202 0.5983
vn -0.2336 -0.0313 0.9718
vn -0.2718 0.2311 0.9342
vn -0.2976 0.8929 0.3379
vn -0.0947 -0.9889 0.1149
vn -0.8805 -0.1762 0.4400
vn -0.8757 0.4515 0.1709
vn -0.3621 0.9003 0.2414
vn -0.1902 -0.9817 -0.0081
vn -0.9100 0.1809 0.3731
vn -0.6288 0.7565 0.1798
vn -0.8932 -0.0642 -0.4451
vn -0.7769 0.4153 -0.4732
vn -0.3024 0.9419 -0.1460
vn -0.1902 -0.9815 0.0208
vn -0.8281 0.2757 -0.4881
vn -0.6818 0.6048 -0.4117
vn -0.2839 -0.0392 -0.9581
vn -0.2902 0.1559 -0.9442
vn -0.2643 0.9478 -0.1786
vn -0.1026 -0.9899 -0.0979
vn -0.2948 0.2145 -0.9311
vn -0.3532 0.5370 -0.7661
vn 0.5266 0.1696 -0.8330
vn 0.0519 0.9890 -0.1384
vn 0.1357 -0.9863 -0.0941
vn 0.5253 0.2314 -0.8189
vn 0.3686 0.6723 -0.6420
vn 0.4078 -0.0796 -0.9096
vn 0.1439 0.9888 0.0404
vn 0.2042 -0.9787 -0.0219
vn 0.7146 0.2531 -0.6521
vn 0.5290 0.7819 -0.3297
vn 0.8072 0.0597 -0.5873
vn 0.7484 0.1920 -0.6348
vn 0.2042 -0.9789 0.0011
vn 0.7138 0.2838 0.6402
vn 0.3657 0.7693 0.5238
vn 0.8490 0.0417 0.5267
vn 0.6977 0.1924 0.6901
vn 0.0808 0.9583 0.2741
vn 0.1422 -0.9873 0.0712
vn 0.4099 0.3912 0.8240
vn 0.0250 0.7125 0.7013
vn 0.3823 0.0178 0.9238
vn 0.2633 0.2163 0.9401
vn -0.1090 0.9147 0.3891
vt 0.750000 0.333333
vt 0.750000 0.500000
vt 0.625000 0.500000
vt 0.625000 0.333333
vt 0.750000 0.666667
vt 0.750000 0.833333
vt 0.625000 0.833333
vt 0.625000 0.666667
vt 0.750000 0.166667
vt 0.625000 0.166667
vt 0.687500 1.000000
vt 0.687500 0.000000
vt 0.500000 0.333333
vt 0.500000 0.166667
vt 0.500000 0.666667
vt 0.500000 0.500000
vt 0.562500 1.000000
vt 0.500000 0.833333
vt 0.562500 0.000000
vt 0.375000 0.333333
vt 0.375000 0.166667
vt 0.375000 0.666667
vt 0.375000 0.500000
vt 0.437500 1.000000
vt 0.375000 0.833333
vt 0.437500 0.000000
vt 0.250000 0.333333
vt 0.250000 0.166667
vt 0.250000 0.666667
vt 0.250000 0.500000
vt 0.312500 1.000000
vt 0.250000 0.833333
vt 0.312500 0.000000
vt 0.125000 0.666667
vt 0.125000 0.500000
vt 0.187500 1.000000
vt 0.125000 0.833333
vt 0.187500 0.000000
vt 0.125000 0.166667
vt 0.125000 0.333333
vt 0.062500 1.000000
vt 0.000000 0.833333
vt 0.062500 0.000000
vt 0.000000 0.166667
vt 0.000000 0.500000
vt 0.000000 0.333333
vt 0.000000 0.666667
vt 0.937500 0.000000
vt 1.000000 0.166667
vt 0.875000 0.166667
vt 1.000000 0.333333
vt 1.000000 0.500000
vt 0.875000 0.500000
vt 0.875000 0.333333
vt 1.000000 0.666667
vt 1.000000 0.833333
vt 0.875000 0.833333
vt 0.875000 0.666667
vt 0.937500 1.000000
vt 0.812500 0.000000
vt 0.812500 1.000000
s 0
f 41/1/1 40/2/1 3/3/1 4/4/1
f 39/5/2 38/6/2 1/7/2 2/8/2
f 42/9/3 41/1/3 4/4/3 5/10/3
f 40/2/4 39/5/4 2/8/4 3/3/4
f 38/6/5 21/11/5 1/7/5
f 27/12/6 42/9/6 5/10/6
f 5/10/7 4/4/7 9/13/7 10/14/7
f 3/3/8 2/8/8 7/15/8 8/16/8
f 1/7/9 21/17/9 6/18/9
f 27/19/10 5/10/10 10/14/10
f 4/4/11 3/3/11 8/16/11 9/13/11
f 2/8/12 1/7/12 6/18/12 7/15/12
f 10/14/13 9/13/13 14/20/13 15/21/13
f 8/16/14 7/15/14 12/22/14 13/23/14
f 6/18/15 21/24/15 11/25/15
f 27/26/16 10/14/16 15/21/16
f 9/13/17 8/16/17 13/23/17 14/20/17
f 7/15/18 6/18/18 11/25/18 12/22/18
f 15/21/19 14/20/19 19/27/19 20/28/19
f 13/23/20 12/22/20 17/29/20 18/30/20
f 11/25/21 21/31/21 16/32/21
f 27/33/22 15/21/22 20/28/22
f 14/20/23 13/23/23 18/30/23 19/27/23
f 12/22/24 11/25/24 16/32/24 17/29/24
f 18/30/25 17/29/25 23/34/25 24/35/25
f 16/32/26 21/36/26 22/37/26
f 27/38/27 20/28/27 26/39/27
f 19/27/28 18/30/28 24/35/28 25/40/28
f 17/29/29 16/32/29 22/37/29 23/34/29
f 20/28/30 19/27/30 25/40/30 26/39/30
f 22/37/31 21/41/31 28/42/31
f 27/43/32 26/39/32 32/44/32
f 25/40/33 24/35/33 30/45/33 31/46/33
f 23/34/34 22/37/34 28/42/34 29/47/34
f 26/39/35 25/40/35 31/46/35 32/44/35
f 24/35/36 23/34/36 29/47/36 30/45/36
f 27/48/37 32/49/37 37/50/37
f 31/51/38 30/52/38 35/53/38 36/54/38
f 29/55/39 28/56/39 33/57/39 34/58/39
f 32/49/40 31/51/40 36/54/40 37/50/40
f 30/52/41 29/55/41 34/58/41 35/53/41
f 28/56/42 21/59/42 33/57/42
f 27/60/43 37/50/43 42/9/43
f 36/54/44 35/53/44 40/2/44 41/1/44
f 34/58/45 33/57/45 38/6/45 39/5/45
f 37/50/46 36/54/46 41/1/46 42/9/46
f 35/53/47 34/58/47 39/5/47 40/2/47
f 33/57/48 21/61/48 38/6/48
f 83/1/49 82/2/49 45/3/49 46/4/49
f 81/5/50 80/6/50 43/7/50 44/8/50
f 84/9/51 83/1/51 46/4/51 47/10/51
f 82/2/52 81/5/52 44/8/52 45/3/52
f 80/6/53 63/11/53 43/7/53
f 69/12/54 84/9/54 47/10/54
f 47/10/55 46/4/55 51/13/55 52/14/55
f 45/3/56 44/8/56 49/15/56 50/16/56
f 43/7/57 63/17/57 48/18/57
f 69/19/58 47/10/58 52/14/58
f 46/4/59 45/3/59 50/16/59 51/13/59
f 44/8/60 43/7/60 48/18/60 49/15/60
f 52/14/61 51/13/61 56/20/61 57/21/61
f 50/16/62 49/15/62 54/22/62 55/23/62
f 48/18/63 63/24/63 53/25/63
f 69/26/64 52/14/64 57/21/64
f 51/13/65 50/16/65 55/23/65 56/20/65
f 49/15/66 48/18/66 53/25/66 54/22/66
f 57/21/67 56/20/67 61/27/67 62/28/67
f 55/23/68 54/22/68 59/29/68 60/30/68
f 53/25/69 63/31/69 58/32/69
f 69/33/70 57/21/70 62/28/70
f 56/20/71 55/23/71 60/30/71 61/27/71
f 54/22/72 53/25/72 58/32/72 59/29/72
f 60/30/73 59/29/73 65/34/73 66/35/73
f 58/32/74 63/36/74 64/37/74
f 69/38/75 62/28/75 68/39/75
f 61/27/76 60/30/76 66/35/76 67/40/76
f 59/29/77 58/32/77 64/37/77 65/34/77
f 62/28/78 61/27/78 67/40/78 68/39/78
f 64/37/79 63/41/79 70/42/79
f 69/43/80 68/39/80 74/44/80
f 67/40/81 66/35/81 72/45/81 73/46/81
f 65/34/82 64/37/82 70/42/82 71/47/82
f 68/39/83 67/40/83 73/46/83 74/44/83
f 66/35/84 65/34/84 71/47/84 72/45/84
f 69/48/85 74/49/85 79/50/85
f 73/51/86 72/52/86 77/53/86 78/54/86
f 71/55/87 70/56/87 75/57/87 76/58/87
f 74/49/88 73/51/88 78/54/88 79/50/88
f 72/52/89 71/55/89 76/58/89 77/53/89
f 70/56/90 63/59/90 75/57/90
f 69/60/91 79/50/91 84/9/91
f 78/54/92 77/53/92 82/2/92 83/1/92
f 76/58/93 75/57/93 80/6/93 81/5/93
f 79/50/94 78/54/94 83/1/94 84/9/94
f 77/53/95 76/58/95 81/5/95 82/2/95
f 75/57/96 63/61/96 80/6/96
f 125/1/97 124/2/97 87/3/97 88/4/97
f 123/5/98 122/6/98 85/7/98 86/8/98
f 126/9/99 125/1/99 88/4/99 89/10/99
f 124/2/100 123/5/100 86/8/100 87/3/100
f 122/6/101 105/11/101 85/7/101
f 111/12/102 126/9/102 89/10/102
f 89/10/103 88/4/103 93/13/103 94/14/103
f 87/3/104 86/8/104 91/15/104 92/16/104
f 85/7/105 105/17/105 90/18/105
f 111/19/106 89/10/106 94/14/106
f 88/4/107 87/3/107 92/16/107 93/13/107
f 86/8/108 85/7/108 90/18/108 91/15/108
f 94/14/109 93/13/109 98/20/109 99/21/109
f 92/16/110 91/15/110 96/22/110 97/23/110
f 90/18/111 105/24/111 95/25/111
f 111/26/112 94/14/112 99/21/112
f 93/13/113 92/16/113 97/23/113 98/20/113
f 91/15/114 90/18/114 95/25/114 96/22/114
f 99/21/115 98/20/115 103/27/115 104/28/115
f 97/23/116 96/22/116 101/29/116 102/30/116
f 95/25/117 105/31/117 100/32/117
f 111/33/118 99/21/118 104/28/118
f 98/20/119 97/23/119 102/30/119 103/27/119
f 96/22/120 95/25/120 100/32/120 101/29/120
f 102/30/121 101/29/121 107/34/121 108/35/121
f 100/32/122 105/36/122 106/37/122
f 111/38/123 104/28/123 110/39/123
f 103/27/124 102/30/124 108/35/124 109/40/124
f 101/29/125 100/32/125 106/37/125 107/34/125
f 104/28/126 103/27/126 109/40/126 110/39/126
f 106/37/127 105/41/127 112/42/127
f 111/43/128 110/39/128 116/44/128
f 109/40/129 108/35/129 114/45/129 115/46/129
f 107/34/130 106/37/130 112/42/130 113/47/130
f 110/39/131 109/40/131 115/46/131 116/44/131
f 108/35/132 107/34/132 113/47/132 114/45/132
f 111/48/133 116/49/133 121/50/133
f 115/51/134 114/52/134 119/53/134 120/54/134
f 113/55/135 112/56/135 117/57/135 118/58/135
f 116/49/136 115/51/136 120/54/136 121/50/136
f 114/52/137 113/55/137 118/58/137 119/53/137
f 112/56/138 105/59/138 117/57/138
f 111/60/139 121/50/139 126/9/139
f 120/54/140 119/53/140 124/2/140 125/1/140
f 118/58/141 117/57/141 122/6/141 123/5/141
f 121/50/142 120/54/142 125/1/142 126/9/142
f 119/53/143 118/58/143 123/5/143 124/2/143
f 117/57/144 105/61/144 122/6/144
f 167/1/145 166/2/145 129/3/145 130/4/145
f 165/5/146 164/6/146 127/7/146 128/8/146
f 168/9/147 167/1/147 130/4/147 131/10/147
f 166/2/148 165/5/148 128/8/148 129/3/148
f 164/6/149 147/11/149 127/7/149
f 153/12/150 168/9/150 131/10/150
f 131/10/151 130/4/151 135/13/151 136/14/151
f 129/3/152 128/8/152 133/15/152 134/16/152
f 127/7/153 147/17/153 132/18/153
f 153/19/154 131/10/154 136/14/154
f 130/4/155 129/3/155 134/16/155 135/13/155
f 128/8/156 127/7/156 132/18/156 133/15/156
f 136/14/157 135/13/157 140/20/157 141/21/157
f 134/16/158 133/15/158 138/22/158 139/23/158
f 132/18/159 147/24/159 137/25/159
f 153/26/160 136/14/160 141/21/160
f 135/13/161 134/16/161 139/23/161 140/20/161
f 133/15/162 132/18/162 137/25/162 138/22/162
f 141/21/163 140/20/163 145/27/163 146/28/163
f 139/23/164 138/22/164 143/29/164 144/30/164
f 137/25/165 147/31/165 142/32/165
f 153/33/166 141/21/166 146/28/166
f 140/20/167 139/23/167 144/30/167 145/27/167
f 138/22/168 137/25/168 142/32/168 143/29/168
f 144/30/169 143/29/169 149/34/169 150/35/169
f 142/32/170 147/36/170 148/37/170
f 153/38/171 146/28/171 152/39/171
f 145/27/172 144/30/172 150/35/172 151/40/172
f 143/29/173 142/32/173 148/37/173 149/34/173
f 146/28/174 145/27/174 151/40/174 152/39/174
f 148/37/175 147/41/175 154/42/175
f 153/43/176 152/39/176 158/44/176
f 151/40/177 150/35/177 156/45/177 157/46/177
f 149/34/178 148/37/178 154/42/178 155/47/178
f 152/39/179 151/40/179 157/46/179 158/44/179
f 150/35/180 149/34/180 155/47/180 156/45/180
f 153/48/181 158/49/181 163/50/181
f 157/51/182 156/52/182 161/53/182 162/54/182
f 155/55/183 154/56/183 159/57/183 160/58/183
f 158/49/184 157/51/184 162/54/184 163/50/184
f 156/52/185 155/55/185 160/58/185 161/53/185
f 154/56/186 147/59/186 159/57/186
f 153/60/187 163/50/187 168/9/187
f 162/54/188 161/53/188 166/2/188 167/1/188
f 160/58/189 159/57/189 164/6/189 165/5/189
f 163/50/190 162/54/190 167/1/190 168/9/190
f 161/53/191 160/58/191 165/5/191 166/2/191
f 159/57/192 147/61/192 164/6/192
