# Blender 4.1.1
# www.blender.org
o Mesh
v -0.097750 -0.000251 -0.133498
v -0.129614 -0.000251 -0.137170
v -0.103042 0.267316 -0.134108
v -0.124322 0.267316 -0.136561
v -0.089111 0.182819 -0.148861
v -0.134532 0.182819 -0.154095
v -0.089669 0.091284 -0.148827
v -0.133996 0.091284 -0.153936
v 0.036260 -0.000242 -0.014983
v 0.049608 -0.000242 -0.042784
v 0.038476 0.257016 -0.019600
v 0.047391 0.257016 -0.038167
v 0.047506 0.175775 -0.002306
v 0.066532 0.175775 -0.041935
v 0.047650 0.087766 -0.002824
v 0.066219 0.087766 -0.041499
v 0.016932 -0.000211 -0.104821
v -0.012233 -0.000211 -0.115762
v 0.012088 0.224177 -0.106638
v -0.007390 0.224177 -0.113945
v 0.028679 0.153316 -0.117270
v -0.012894 0.153316 -0.132866
v 0.028146 0.076553 -0.117369
v -0.012427 0.076553 -0.132590
v -0.113283 -0.000220 -0.025266
v -0.119261 -0.000220 0.002990
v -0.114276 0.233359 -0.020574
v -0.118268 0.233359 -0.001703
v -0.126328 0.159596 -0.034305
v -0.134848 0.159596 0.005972
v -0.126345 0.079688 -0.033802
v -0.134660 0.079688 0.005505
v -0.029463 -0.000231 -0.071344
v -0.052566 -0.000231 -0.050450
v -0.033300 0.245392 -0.067874
v -0.048729 0.245392 -0.053920
v -0.035134 0.167825 -0.087494
v -0.068067 0.167825 -0.057711
v -0.035467 0.083797 -0.087065
v -0.067607 0.083797 -0.057999
v -0.188300 -0.000201 -0.158230
v -0.215974 -0.000201 -0.143929
v -0.192896 0.213822 -0.155855
v -0.211378 0.213822 -0.146304
v -0.189659 0.146234 -0.175293
v -0.229106 0.146234 -0.154908
v -0.190090 0.073017 -0.174963
v -0.228587 0.073016 -0.155069
v -0.154841 -0.000273 -0.065219
v -0.139240 -0.000273 -0.092181
v -0.152250 0.290369 -0.069697
v -0.141831 0.290369 -0.087703
v -0.144500 0.198585 -0.051579
v -0.122262 0.198585 -0.090012
v -0.144314 0.099156 -0.052089
v -0.122611 0.099156 -0.089597
v -0.059734 -0.000218 -0.187968
v -0.038387 -0.000218 -0.208617
v -0.056189 0.231458 -0.191397
v -0.041933 0.231458 -0.205188
v -0.053812 0.158296 -0.172761
v -0.023385 0.158296 -0.202194
v -0.053509 0.079039 -0.173180
v -0.023814 0.079039 -0.201905
v 0.054753 -0.000251 0.046426
v 0.025719 -0.000251 0.032792
v 0.049931 0.267316 0.044162
v 0.030541 0.267316 0.035057
v 0.067836 0.182819 0.034616
v 0.026451 0.182819 0.015183
v 0.067297 0.091284 0.034471
v 0.026907 0.091284 0.015505
v 0.144015 -0.000242 0.201464
v 0.165526 -0.000242 0.179364
v 0.147587 0.257016 0.197794
v 0.161953 0.257016 0.183035
v 0.150636 0.175775 0.217063
v 0.181298 0.175775 0.185562
v 0.150938 0.087766 0.216618
v 0.180861 0.087766 0.185876
v 0.154320 -0.000211 0.110150
v 0.130161 -0.000211 0.090485
v 0.150308 0.224177 0.106884
v 0.134173 0.224177 0.093751
v 0.169422 0.153316 0.102092
v 0.134985 0.153316 0.074063
v 0.168947 0.076553 0.101828
v 0.135339 0.076553 0.074473
v 0.005543 -0.000220 0.144067
v -0.009126 -0.000220 0.168946
v 0.003107 0.233359 0.148199
v -0.006690 0.233359 0.164814
v -0.003942 0.159596 0.131343
v -0.024851 0.159596 0.166806
v -0.004118 0.079688 0.131815
v -0.024524 0.079688 0.166424
v 0.099677 -0.000231 0.127099
v 0.071119 -0.000231 0.139543
v 0.094934 0.245392 0.129166
v 0.075862 0.245392 0.137476
v 0.099446 0.167825 0.109984
v 0.058741 0.167825 0.127721
v 0.098994 0.083797 0.110284
v 0.059268 0.083797 0.127594
v -0.023198 -0.000201 -0.005869
v -0.053986 -0.000201 -0.001131
v -0.028311 0.213822 -0.005082
v -0.048873 0.213822 -0.001918
v -0.019049 0.146234 -0.022475
v -0.062935 0.146234 -0.015721
v -0.019563 0.073017 -0.022300
v -0.062393 0.073016 -0.015709
v -0.021119 -0.000273 0.092956
v 0.002260 -0.000273 0.072370
v -0.017236 0.290369 0.089537
v -0.001623 0.290369 0.075789
v -0.015662 0.198585 0.109179
v 0.017662 0.198585 0.079836
v -0.015324 0.099156 0.108755
v 0.017199 0.099156 0.080118
v 0.108143 -0.000218 0.006908
v 0.134956 -0.000218 -0.005863
v 0.112596 0.231458 0.004787
v 0.130503 0.231458 -0.003742
v 0.108910 0.158296 0.023210
v 0.147130 0.158296 0.005005
v 0.109331 0.079039 0.022909
v 0.146631 0.079039 0.005143
vn 0.1124 0.1889 -0.9755
vn 0.1145 -0.0011 -0.9934
vn 0.1127 -0.1738 -0.9783
vn 0.8853 0.1889 0.4250
vn 0.9015 -0.0011 0.4328
vn 0.8878 -0.1738 0.4262
vn 0.3428 0.2174 -0.9139
vn 0.3512 -0.0012 -0.9363
vn 0.3441 -0.2002 -0.9173
vn -0.9596 0.1946 -0.2030
vn -0.9783 -0.0011 -0.2070
vn -0.9625 -0.1791 -0.2036
vn -0.6573 0.1994 -0.7268
vn -0.6707 -0.0011 -0.7417
vn -0.6594 -0.1835 -0.7291
vn -0.4471 0.2274 -0.8651
vn -0.4591 -0.0013 -0.8884
vn -0.4489 -0.2095 -0.8687
vn 0.8530 0.1695 0.4936
vn 0.8655 -0.0010 0.5008
vn 0.8550 -0.1558 0.4947
vn 0.6810 0.2014 0.7040
vn 0.6953 -0.0011 0.7187
vn 0.6832 -0.1854 0.7063
vn 0.4174 0.1889 -0.8889
vn 0.4251 -0.0011 -0.9052
vn 0.4186 -0.1738 -0.8914
vn 0.7037 0.1889 0.6849
vn 0.7166 -0.0011 0.6975
vn 0.7057 -0.1738 0.6869
vn 0.6162 0.2174 -0.7570
vn 0.6313 -0.0012 -0.7756
vn 0.6185 -0.2002 -0.7599
vn -0.8449 0.1946 -0.4982
vn -0.8614 -0.0011 -0.5079
vn -0.8475 -0.1791 -0.4997
vn -0.3914 0.1994 -0.8983
vn -0.3995 -0.0011 -0.9167
vn -0.3927 -0.1835 -0.9012
vn -0.1481 0.2274 -0.9625
vn -0.1521 -0.0013 -0.9884
vn -0.1487 -0.2095 -0.9664
vn 0.6513 0.1695 0.7397
vn 0.6608 -0.0010 0.7505
vn 0.6528 -0.1558 0.7413
vn 0.4212 0.2014 0.8843
vn 0.4300 -0.0011 0.9028
vn 0.4226 -0.1854 0.8872
vt 0.000000 0.500000
vt 1.000000 0.500000
vt 1.000000 1.000000
vt 0.000000 1.000000
vt 0.000000 0.250000
vt 1.000000 0.250000
vt 0.000000 0.000000
vt 1.000000 0.000000
s 0
f 5/1/1 6/2/1 4/3/1 3/4/1
f 7/5/2 8/6/2 6/2/2 5/1/2
f 1/7/3 2/8/3 8/6/3 7/5/3
f 13/1/4 14/2/4 12/3/4 11/4/4
f 15/5/5 16/6/5 14/2/5 13/1/5
f 9/7/6 10/8/6 16/6/6 15/5/6
f 21/1/7 22/2/7 20/3/7 19/4/7
f 23/5/8 24/6/8 22/2/8 21/1/8
f 17/7/9 18/8/9 24/6/9 23/5/9
f 29/1/10 30/2/10 28/3/10 27/4/10
f 31/5/11 32/6/11 30/2/11 29/1/11
f 25/7/12 26/8/12 32/6/12 31/5/12
f 37/1/13 38/2/13 36/3/13 35/4/13
f 39/5/14 40/6/14 38/2/14 37/1/14
f 33/7/15 34/8/15 40/6/15 39/5/15
f 45/1/16 46/2/16 44/3/16 43/4/16
f 47/5/17 48/6/17 46/2/17 45/1/17
f 41/7/18 42/8/18 48/6/18 47/5/18
f 53/1/19 54/2/19 52/3/19 51/4/19
f 55/5/20 56/6/20 54/2/20 53/1/20
f 49/7/21 50/8/21 56/6/21 55/5/21
f 61/1/22 62/2/22 60/3/22 59/4/22
f 63/5/23 64/6/23 62/2/23 61/1/23
f 57/7/24 58/8/24 64/6/24 63/5/24
f 69/1/25 70/2/25 68/3/25 67/4/25
f 71/5/26 72/6/26 70/2/26 69/1/26
f 65/7/27 66/8/27 72/6/27 71/5/27
f 77/1/28 78/2/28 76/3/28 75/4/28
f 79/5/29 80/6/29 78/2/29 77/1/29
f 73/7/30 74/8/30 80/6/30 79/5/30
f 85/1/31 86/2/31 84/3/31 83/4/31
f 87/5/32 88/6/32 86/2/32 85/1/32
f 81/7/33 82/8/33 88/6/33 87/5/33
f 93/1/34 94/2/34 92/3/34 91/4/34
f 95/5/35 96/6/35 94/2/35 93/1/35
f 89/7/36 90/8/36 96/6/36 95/5/36
f 101/1/37 102/2/37 100/3/37 99/4/37
f 103/5/38 104/6/38 102/2/38 101/1/38
f 97/7/39 98/8/39 104/6/39 103/5/39
f 109/1/40 110/2/40 108/3/40 107/4/40
f 111/5/41 112/6/41 110/2/41 109/1/41
f 105/7/42 106/8/42 112/6/42 111/5/42
f 117/1/43 118/2/43 116/3/43 115/4/43
f 119/5/44 120/6/44 118/2/44 117/1/44
f 113/7/45 114/8/45 120/6/45 119/5/45
f 125/1/46 126/2/46 124/3/46 123/4/46
f 127/5/47 128/6/47 126/2/47 125/1/47
f 121/7/48 122/8/48 128/6/48 127/5/48
