# Blender 4.1.1
# www.blender.org
o Mesh
v -0.036696 -0.000290 -0.051076
v -0.068561 -0.000290 -0.054748
v -0.041988 0.308309 -0.051686
v -0.063269 0.308309 -0.054138
v -0.028058 0.210854 -0.066439
v -0.073478 0.210854 -0.071673
v -0.028615 0.105282 -0.066405
v -0.072943 0.105282 -0.071513
v 0.097313 -0.000279 0.067440
v 0.110661 -0.000279 0.039638
v 0.099530 0.296429 0.062823
v 0.108444 0.296429 0.044256
v 0.108559 0.202730 0.080116
v 0.127586 0.202730 0.040487
v 0.108704 0.101226 0.079599
v 0.127272 0.101226 0.040924
v 0.077986 -0.000243 -0.022399
v 0.048820 -0.000243 -0.033340
v 0.073142 0.258555 -0.024216
v 0.053664 0.258555 -0.031523
v 0.089733 0.176827 -0.034848
v 0.048160 0.176827 -0.050444
v 0.089199 0.088292 -0.034947
v 0.048627 0.088292 -0.050168
v -0.052230 -0.000253 0.057156
v -0.058207 -0.000253 0.085412
v -0.053223 0.269145 0.061849
v -0.057215 0.269145 0.080720
v -0.065274 0.184070 0.048117
v -0.073795 0.184070 0.088394
v -0.065291 0.091908 0.048620
v -0.073606 0.091908 0.087928
v 0.031591 -0.000266 0.011078
v 0.008487 -0.000266 0.031973
v 0.027754 0.283023 0.014548
v 0.012324 0.283023 0.028502
v 0.025920 0.193561 -0.005071
v -0.007013 0.193561 0.024712
v 0.025587 0.096648 -0.004643
v -0.006553 0.096648 0.024423
v -0.127246 -0.000232 -0.075808
v -0.154920 -0.000232 -0.061507
v -0.131842 0.246611 -0.073433
v -0.150324 0.246611 -0.063882
v -0.128605 0.168659 -0.092870
v -0.168052 0.168659 -0.072485
v -0.129037 0.084214 -0.092541
v -0.167534 0.084214 -0.072647
v -0.093788 -0.000315 0.017204
v -0.078186 -0.000315 -0.009758
v -0.091197 0.334897 0.012726
v -0.080778 0.334897 -0.005281
v -0.083446 0.229038 0.030843
v -0.061208 0.229038 -0.007589
v -0.083261 0.114362 0.030333
v -0.061557 0.114362 -0.007174
v 0.001320 -0.000251 -0.105545
v 0.022666 -0.000251 -0.126195
v 0.004865 0.266952 -0.108975
v 0.019121 0.266952 -0.122765
v 0.007241 0.182570 -0.090338
v 0.037668 0.182570 -0.119772
v 0.007545 0.091160 -0.090757
v 0.037239 0.091160 -0.119483
vn 0.1129 0.1645 -0.9799
vn 0.1145 -0.0009 -0.9934
vn 0.1132 -0.1512 -0.9820
vn 0.8892 0.1645 0.4269
vn 0.9015 -0.0009 0.4328
vn 0.8911 -0.1512 0.4278
vn 0.3449 0.1896 -0.9193
vn 0.3512 -0.0011 -0.9363
vn 0.3459 -0.1745 -0.9219
vn -0.9642 0.1695 -0.2040
vn -0.9783 -0.0010 -0.2070
vn -0.9664 -0.1559 -0.2044
vn -0.6605 0.1737 -0.7304
vn -0.6707 -0.0010 -0.7417
vn -0.6621 -0.1598 -0.7322
vn -0.4500 0.1984 -0.8707
vn -0.4591 -0.0011 -0.8884
vn -0.4514 -0.1826 -0.8734
vn 0.8561 0.1475 0.4954
vn 0.8655 -0.0008 0.5008
vn 0.8576 -0.1355 0.4962
vn 0.6845 0.1755 0.7076
vn 0.6953 -0.0010 0.7187
vn 0.6862 -0.1615 0.7093
vt 0.000000 0.500000
vt 1.000000 0.500000
vt 1.000000 1.000000
vt 0.000000 1.000000
vt 0.000000 0.250000
vt 1.000000 0.250000
vt 0.000000 0.000000
vt 1.000000 0.000000
s 0
f 5/1/1 6/2/1 4/3/1 3/4/1
f 7/5/2 8/6/2 6/2/2 5/1/2
f 1/7/3 2/8/3 8/6/3 7/5/3
f 13/1/4 14/2/4 12/3/4 11/4/4
f 15/5/5 16/6/5 14/2/5 13/1/5
f 9/7/6 10/8/6 16/6/6 15/5/6
f 21/1/7 22/2/7 20/3/7 19/4/7
f 23/5/8 24/6/8 22/2/8 21/1/8
f 17/7/9 18/8/9 24/6/9 23/5/9
f 29/1/10 30/2/10 28/3/10 27/4/10
f 31/5/11 32/6/11 30/2/11 29/1/11
f 25/7/12 26/8/12 32/6/12 31/5/12
f 37/1/13 38/2/13 36/3/13 35/4/13
f 39/5/14 40/6/14 38/2/14 37/1/14
f 33/7/15 34/8/15 40/6/15 39/5/15
f 45/1/16 46/2/16 44/3/16 43/4/16
f 47/5/17 48/6/17 46/2/17 45/1/17
f 41/7/18 42/8/18 48/6/18 47/5/18
f 53/1/19 54/2/19 52/3/19 51/4/19
f 55/5/20 56/6/20 54/2/20 53/1/20
f 49/7/21 50/8/21 56/6/21 55/5/21
f 61/1/22 62/2/22 60/3/22 59/4/22
f 63/5/23 64/6/23 62/2/23 61/1/23
f 57/7/24 58/8/24 64/6/24 63/5/24
