# Blender 4.3.0
# www.blender.org
o Model.001
v -2.464843 1.219669 -0.338503 1.0000 1.0000 1.0000
v 0.000000 4.895645 0.000000 1.0000 1.0000 1.0000
v 0.338503 1.309415 -2.464843 1.0000 1.0000 1.0000
v -0.338503 0.889627 2.464843 1.0000 1.0000 1.0000
v 2.464843 1.216849 0.338503 1.0000 1.0000 1.0000
v 1.401673 1.591113 -1.063170 1.0000 1.0000 1.0000
v -1.401673 1.591113 1.063170 1.0000 1.0000 1.0000
v -1.063170 1.591113 -1.401673 1.0000 1.0000 1.0000
v 1.063170 1.591113 1.401673 1.0000 1.0000 1.0000
v 0.000000 2.040723 0.000000 1.0000 1.0000 1.0000
v -1.357882 2.971071 -0.186481 1.0000 1.0000 1.0000
v 0.186481 2.971071 -1.357882 1.0000 1.0000 1.0000
v 1.357882 2.971071 0.186481 1.0000 1.0000 1.0000
v -0.186481 2.971071 1.357882 1.0000 1.0000 1.0000
v -0.772181 2.971071 0.585700 1.0000 1.0000 1.0000
v 0.772181 2.971071 -0.585700 1.0000 1.0000 1.0000
v 0.585700 2.971071 0.772181 1.0000 1.0000 1.0000
v -0.585700 2.971071 -0.772181 1.0000 1.0000 1.0000
v -0.759896 -0.006131 0.669752 0.0000 0.0000 0.0000
v -0.375868 2.214733 0.331280 0.0000 0.0000 0.0000
v -0.759896 -0.006131 -0.669752 0.0000 0.0000 0.0000
v -0.375868 2.214733 -0.331280 0.0000 0.0000 0.0000
v 0.759896 -0.006131 0.669752 0.0000 0.0000 0.0000
v 0.375868 2.214733 0.331280 0.0000 0.0000 0.0000
v 0.759896 -0.006131 -0.669752 0.0000 0.0000 0.0000
v 0.375868 2.214733 -0.331280 0.0000 0.0000 0.0000
v -0.435764 1.085852 0.384070 0.0000 0.0000 0.0000
v -0.435764 1.085852 -0.384070 0.0000 0.0000 0.0000
v 0.435764 1.085852 -0.384070 0.0000 0.0000 0.0000
v 0.435764 1.085852 0.384070 0.0000 0.0000 0.0000
v -0.937013 -0.006131 -0.000000 0.0000 0.0000 0.0000
v -0.463476 2.214733 0.000000 0.0000 0.0000 0.0000
v 0.937013 -0.006131 0.000000 0.0000 0.0000 0.0000
v 0.463476 2.214733 0.000000 0.0627 0.0627 0.0627
v 0.537332 1.085852 0.000000 0.0000 0.0000 0.0000
v -0.537332 1.085852 0.000000 0.0000 0.0000 0.0000
v 0.000000 -0.006131 -0.868935 0.0000 0.0000 0.0000
v 0.000000 2.214733 -0.429803 0.0000 0.0000 0.0000
v -0.000000 -0.006131 0.868935 0.0000 0.0000 0.0000
v 0.000000 2.214733 0.429803 0.0000 0.0000 0.0000
v 0.000000 1.085852 0.498292 0.0000 0.0000 0.0000
v 0.000000 1.085852 -0.498292 0.0000 0.0000 0.0000
v 0.000000 2.214733 0.000000 0.0627 0.0627 0.0627
v 0.000000 -0.006131 0.000000 0.0039 0.0039 0.0039
v -1.669474 4.539905 -0.258549 1.0000 1.0000 1.0000
v 0.000000 7.035951 0.000000 1.0000 1.0000 1.0000
v 0.258549 4.600844 -1.669474 1.0000 1.0000 1.0000
v -0.258549 4.315802 1.669474 1.0000 1.0000 1.0000
v 1.669474 4.537990 0.258549 1.0000 1.0000 1.0000
v 0.964012 4.792121 -0.705463 1.0000 1.0000 1.0000
v -0.964012 4.792121 0.705463 1.0000 1.0000 1.0000
v -0.705463 4.792121 -0.964012 1.0000 1.0000 1.0000
v 0.705463 4.792121 0.964012 1.0000 1.0000 1.0000
v 0.000000 5.097414 0.000000 1.0000 1.0000 1.0000
v -1.050695 5.729134 -0.162720 1.0000 1.0000 1.0000
v 0.162720 5.729134 -1.050695 1.0000 1.0000 1.0000
v 1.050695 5.729134 0.162720 1.0000 1.0000 1.0000
v -0.162720 5.729134 1.050695 1.0000 1.0000 1.0000
v -0.606707 5.729134 0.443988 1.0000 1.0000 1.0000
v 0.606707 5.729134 -0.443988 1.0000 1.0000 1.0000
v 0.443988 5.729134 0.606707 1.0000 1.0000 1.0000
v -0.443988 5.729134 -0.606707 1.0000 1.0000 1.0000
v 0.889276 3.456650 -1.788054 1.0000 1.0000 1.0000
v 0.000000 6.407186 0.000000 1.0000 1.0000 1.0000
v 1.788054 3.528685 0.889276 1.0000 1.0000 1.0000
v -1.788054 3.191741 -0.889276 1.0000 1.0000 1.0000
v -0.889276 3.454387 1.788054 1.0000 1.0000 1.0000
v 0.449389 3.754791 1.338665 1.0000 1.0000 1.0000
v -0.449389 3.754791 -1.338665 1.0000 1.0000 1.0000
v 1.338665 3.754791 -0.449389 1.0000 1.0000 1.0000
v -1.338665 3.754791 0.449389 1.0000 1.0000 1.0000
v 0.000000 4.115672 0.000000 1.0000 1.0000 1.0000
v 0.470494 4.862420 -0.946014 1.0000 1.0000 1.0000
v 0.946014 4.862420 0.470494 1.0000 1.0000 1.0000
v -0.470494 4.862420 0.946014 1.0000 1.0000 1.0000
v -0.946014 4.862420 -0.470494 1.0000 1.0000 1.0000
v -0.237760 4.862420 -0.708254 1.0000 1.0000 1.0000
v 0.237760 4.862420 0.708254 1.0000 1.0000 1.0000
v -0.708254 4.862420 0.237760 1.0000 1.0000 1.0000
v 0.708254 4.862420 -0.237760 1.0000 1.0000 1.0000
v 0.763457 2.289919 2.195075 1.0000 1.0000 1.0000
v 0.000000 5.723696 0.000000 1.0000 1.0000 1.0000
v -2.195075 2.373752 0.763457 1.0000 1.0000 1.0000
v 2.195075 1.981623 -0.763457 1.0000 1.0000 1.0000
v -0.763457 2.287285 -2.195075 1.0000 1.0000 1.0000
v -1.479266 2.636890 -0.715809 1.0000 1.0000 1.0000
v 1.479266 2.636890 0.715809 1.0000 1.0000 1.0000
v -0.715809 2.636890 1.479266 1.0000 1.0000 1.0000
v 0.715809 2.636890 -1.479266 1.0000 1.0000 1.0000
v 0.000000 3.056876 0.000000 1.0000 1.0000 1.0000
v 0.363802 3.925926 1.045996 1.0000 1.0000 1.0000
v -1.045996 3.925926 0.363802 1.0000 1.0000 1.0000
v -0.363802 3.925926 -1.045996 1.0000 1.0000 1.0000
v 1.045996 3.925926 -0.363802 1.0000 1.0000 1.0000
v 0.704899 3.925926 0.341097 1.0000 1.0000 1.0000
v -0.704899 3.925926 -0.341097 1.0000 1.0000 1.0000
v 0.341097 3.925926 -0.704899 1.0000 1.0000 1.0000
v -0.341097 3.925926 0.704899 1.0000 1.0000 1.0000
vn -0.5398 0.4498 -0.7116
vn 0.7116 0.4498 -0.5398
vn 0.5398 0.4498 0.7116
vn -0.7116 0.4498 0.5398
vn 0.0571 -0.9076 -0.4160
vn 0.3105 -0.9496 0.0426
vn -0.7116 0.4498 0.5397
vn 0.7116 0.4498 -0.5397
vn -0.0384 -0.9594 0.2794
vn -0.3114 -0.9493 -0.0428
vn 0.5397 0.4498 0.7116
vn -0.5397 0.4498 -0.7116
vn -0.5847 0.4622 -0.6667
vn 0.5851 0.4620 0.6665
vn 0.6727 0.4704 -0.5712
vn -0.6450 0.4336 0.6292
vn -0.7428 0.4622 0.4844
vn 0.4515 0.4336 0.7798
vn 0.7431 0.4620 -0.4841
vn -0.4938 0.4704 -0.7314
vn -0.9648 0.0631 -0.2552
vn 0.2531 0.0586 -0.9657
vn 0.9648 0.0631 0.2552
vn -0.2531 0.0586 0.9657
vn -0.0000 -1.0000 -0.0000
vn -0.0000 1.0000 -0.0000
vn -0.2409 0.3119 0.9191
vn 0.9114 0.3336 0.2410
vn 0.2409 0.3119 -0.9191
vn -0.9114 0.3336 -0.2410
vn -0.9114 0.3336 0.2410
vn 0.9114 0.3336 -0.2410
vn 0.9648 0.0631 -0.2552
vn -0.9648 0.0631 0.2552
vn -0.2409 0.3119 -0.9191
vn 0.2409 0.3119 0.9191
vn 0.2531 0.0586 0.9657
vn -0.2531 0.0586 -0.9657
vn -0.5119 0.4987 -0.6995
vn 0.6995 0.4987 -0.5119
vn 0.5119 0.4987 0.6995
vn -0.6995 0.4987 0.5119
vn 0.0643 -0.9076 -0.4150
vn 0.3097 -0.9496 0.0480
vn -0.0432 -0.9594 0.2787
vn -0.3107 -0.9493 -0.0481
vn -0.5833 0.3930 -0.7109
vn 0.5836 0.3927 0.7107
vn 0.7154 0.4009 -0.5723
vn -0.6947 0.3659 0.6193
vn -0.7710 0.3930 0.5011
vn 0.4748 0.3659 0.8004
vn 0.7713 0.3927 -0.5009
vn -0.5087 0.4009 -0.7619
vn 0.8534 0.4354 -0.2865
vn 0.2865 0.4354 0.8534
vn -0.8534 0.4354 0.2865
vn -0.2865 0.4354 -0.8534
vn 0.3760 -0.9076 0.1870
vn -0.1396 -0.9496 0.2806
vn -0.2525 -0.9594 -0.1256
vn 0.1400 -0.9493 -0.2815
vn 0.8080 0.4803 -0.3412
vn -0.8079 0.4801 0.3417
vn 0.3257 0.4885 0.8095
vn -0.3931 0.4516 -0.8010
vn -0.2155 0.4803 -0.8502
vn -0.8759 0.4516 0.1698
vn 0.2150 0.4801 0.8505
vn 0.8421 0.4885 -0.2287
vn -0.3993 0.3993 0.8253
vn -0.8253 0.3993 -0.3993
vn 0.3993 0.3993 -0.8253
vn 0.8253 0.3993 0.3993
vn -0.3966 -0.9076 0.1379
vn -0.1029 -0.9496 -0.2960
vn 0.2664 -0.9594 -0.0926
vn 0.1033 -0.9493 0.2969
vn -0.3030 0.5218 0.7974
vn 0.3026 0.5215 -0.7978
vn -0.7867 0.5298 -0.3169
vn 0.8319 0.4929 0.2547
vn 0.7324 0.5218 0.4373
vn 0.4943 0.4929 -0.7160
vn -0.7323 0.5215 -0.4378
vn -0.4203 0.5298 0.7367
vt 0.848654 0.464038
vt 0.848654 0.610385
vt 0.918077 0.464038
vt 0.920577 0.612885
vt 0.920577 0.466538
vt 0.851154 0.612885
vt 0.612885 0.689808
vt 0.466538 0.689808
vt 0.612885 0.620385
vt 0.464038 0.617885
vt 0.610385 0.617885
vt 0.464038 0.687308
vt 0.151346 0.002500
vt 0.002500 0.002500
vt 0.002500 0.151346
vt 0.151346 0.151346
vt 0.151346 0.156346
vt 0.002500 0.156346
vt 0.002500 0.305192
vt 0.151346 0.305192
vt 0.687308 0.464038
vt 0.617885 0.610385
vt 0.617885 0.464038
vt 0.310192 0.687308
vt 0.456538 0.617885
vt 0.310192 0.617885
vt 0.305192 0.002500
vt 0.156346 0.002500
vt 0.156346 0.151346
vt 0.305192 0.151346
vt 0.305192 0.156346
vt 0.156346 0.156346
vt 0.156346 0.305192
vt 0.305192 0.305192
vt 0.620385 0.612885
vt 0.689808 0.466538
vt 0.689808 0.612885
vt 0.459038 0.620385
vt 0.312692 0.689808
vt 0.459038 0.689808
vt 0.920577 0.459038
vt 0.920577 0.310192
vt 0.848654 0.310192
vt 0.848654 0.459038
vt 0.156346 0.920577
vt 0.305192 0.920577
vt 0.305192 0.848654
vt 0.156346 0.848654
vt 0.920577 0.305192
vt 0.920577 0.156346
vt 0.848654 0.156346
vt 0.848654 0.305192
vt 0.305192 0.310192
vt 0.156346 0.310192
vt 0.156346 0.459038
vt 0.305192 0.459038
vt 0.002500 0.843654
vt 0.151346 0.843654
vt 0.151346 0.771731
vt 0.002500 0.771731
vt 0.151346 0.464038
vt 0.002500 0.464038
vt 0.002500 0.612885
vt 0.151346 0.612885
vt 0.843654 0.305192
vt 0.843654 0.156346
vt 0.771731 0.156346
vt 0.771731 0.305192
vt 0.617885 0.766731
vt 0.766731 0.766731
vt 0.766731 0.694808
vt 0.617885 0.694808
vt 0.959038 0.305192
vt 0.959038 0.233269
vt 0.925577 0.233269
vt 0.925577 0.305192
vt 0.156346 0.959038
vt 0.228269 0.959038
vt 0.228269 0.925577
vt 0.156346 0.925577
vt 0.959038 0.535962
vt 0.959038 0.464038
vt 0.925577 0.464038
vt 0.925577 0.535962
vt 0.540962 0.959038
vt 0.612885 0.959038
vt 0.612885 0.925577
vt 0.540962 0.925577
vt 0.920577 0.848654
vt 0.848654 0.848654
vt 0.848654 0.920577
vt 0.920577 0.920577
vt 0.843654 0.925577
vt 0.810192 0.925577
vt 0.810192 0.959038
vt 0.843654 0.959038
vt 0.959038 0.766731
vt 0.959038 0.694808
vt 0.925577 0.694808
vt 0.925577 0.766731
vt 0.464038 0.959038
vt 0.535962 0.959038
vt 0.535962 0.925577
vt 0.464038 0.925577
vt 0.959038 0.689808
vt 0.959038 0.617885
vt 0.925577 0.617885
vt 0.925577 0.689808
vt 0.387115 0.959038
vt 0.459038 0.959038
vt 0.459038 0.925577
vt 0.387115 0.925577
vt 0.959038 0.612885
vt 0.959038 0.540962
vt 0.925577 0.540962
vt 0.925577 0.612885
vt 0.310192 0.959038
vt 0.382115 0.959038
vt 0.382115 0.925577
vt 0.310192 0.925577
vt 0.959038 0.810192
vt 0.925577 0.810192
vt 0.925577 0.843654
vt 0.959038 0.843654
vt 0.074423 0.925577
vt 0.002500 0.925577
vt 0.002500 0.997500
vt 0.074423 0.997500
vt 0.959038 0.382115
vt 0.959038 0.310192
vt 0.925577 0.310192
vt 0.925577 0.382115
vt 0.233269 0.959038
vt 0.305192 0.959038
vt 0.305192 0.925577
vt 0.233269 0.925577
vt 0.151346 0.925577
vt 0.079423 0.925577
vt 0.079423 0.997500
vt 0.151346 0.997500
vt 0.805192 0.925577
vt 0.771731 0.925577
vt 0.771731 0.959038
vt 0.805192 0.959038
vt 0.959038 0.228269
vt 0.959038 0.156346
vt 0.925577 0.156346
vt 0.925577 0.228269
vt 0.694808 0.959038
vt 0.766731 0.959038
vt 0.766731 0.925577
vt 0.694808 0.925577
vt 0.959038 0.771731
vt 0.925577 0.771731
vt 0.925577 0.805192
vt 0.959038 0.805192
vt 0.997500 0.002500
vt 0.925577 0.002500
vt 0.925577 0.074423
vt 0.997500 0.074423
vt 0.959038 0.459038
vt 0.959038 0.387115
vt 0.925577 0.387115
vt 0.925577 0.459038
vt 0.617885 0.959038
vt 0.689808 0.959038
vt 0.689808 0.925577
vt 0.617885 0.925577
vt 0.617885 0.310192
vt 0.617885 0.456538
vt 0.687308 0.310192
vt 0.689808 0.305192
vt 0.689808 0.158846
vt 0.620385 0.305192
vt 0.002500 0.617885
vt 0.148846 0.617885
vt 0.002500 0.687308
vt 0.305192 0.689808
vt 0.158846 0.689808
vt 0.305192 0.620385
vt 0.920577 0.771731
vt 0.848654 0.771731
vt 0.848654 0.843654
vt 0.920577 0.843654
vt 0.843654 0.848654
vt 0.771731 0.848654
vt 0.771731 0.920577
vt 0.843654 0.920577
vt 0.687308 0.156346
vt 0.617885 0.302692
vt 0.617885 0.156346
vt 0.156346 0.687308
vt 0.302692 0.617885
vt 0.156346 0.617885
vt 0.920577 0.694808
vt 0.848654 0.694808
vt 0.848654 0.766731
vt 0.920577 0.766731
vt 0.766731 0.848654
vt 0.694808 0.848654
vt 0.694808 0.920577
vt 0.766731 0.920577
vt 0.620385 0.459038
vt 0.689808 0.312692
vt 0.689808 0.459038
vt 0.151346 0.620385
vt 0.005000 0.689808
vt 0.151346 0.689808
vt 0.920577 0.617885
vt 0.848654 0.617885
vt 0.848654 0.689808
vt 0.920577 0.689808
vt 0.689808 0.848654
vt 0.617885 0.848654
vt 0.617885 0.920577
vt 0.689808 0.920577
vt 0.612885 0.848654
vt 0.540962 0.848654
vt 0.540962 0.920577
vt 0.612885 0.920577
vt 0.535962 0.848654
vt 0.464038 0.848654
vt 0.464038 0.920577
vt 0.535962 0.920577
vt 0.997500 0.079423
vt 0.925577 0.079423
vt 0.925577 0.151346
vt 0.997500 0.151346
vt 0.459038 0.848654
vt 0.387115 0.848654
vt 0.387115 0.920577
vt 0.459038 0.920577
vt 0.382115 0.848654
vt 0.310192 0.848654
vt 0.310192 0.920577
vt 0.382115 0.920577
vt 0.843654 0.771731
vt 0.771731 0.771731
vt 0.771731 0.843654
vt 0.843654 0.843654
vt 0.617885 0.002500
vt 0.617885 0.148846
vt 0.687308 0.002500
vt 0.464038 0.464038
vt 0.610385 0.464038
vt 0.464038 0.533462
vt 0.464038 0.540962
vt 0.610385 0.540962
vt 0.464038 0.610385
vt 0.612885 0.459038
vt 0.612885 0.312692
vt 0.543462 0.459038
vt 0.459038 0.156346
vt 0.310192 0.156346
vt 0.310192 0.305192
vt 0.459038 0.305192
vt 0.459038 0.002500
vt 0.310192 0.002500
vt 0.310192 0.151346
vt 0.459038 0.151346
vt 0.620385 0.151346
vt 0.689808 0.005000
vt 0.689808 0.151346
vt 0.610385 0.310192
vt 0.540962 0.456538
vt 0.540962 0.310192
vt 0.151346 0.310192
vt 0.002500 0.310192
vt 0.002500 0.459038
vt 0.151346 0.459038
vt 0.459038 0.464038
vt 0.310192 0.464038
vt 0.310192 0.612885
vt 0.459038 0.612885
vt 0.612885 0.543462
vt 0.466538 0.612885
vt 0.612885 0.612885
vt 0.612885 0.466538
vt 0.466538 0.535962
vt 0.612885 0.535962
vt 0.920577 0.151346
vt 0.920577 0.002500
vt 0.848654 0.002500
vt 0.848654 0.151346
vt 0.002500 0.920577
vt 0.151346 0.920577
vt 0.151346 0.848654
vt 0.002500 0.848654
vt 0.843654 0.766731
vt 0.843654 0.617885
vt 0.771731 0.617885
vt 0.771731 0.766731
vt 0.464038 0.843654
vt 0.612885 0.843654
vt 0.612885 0.771731
vt 0.464038 0.771731
vt 0.843654 0.612885
vt 0.843654 0.464038
vt 0.771731 0.464038
vt 0.771731 0.612885
vt 0.310192 0.843654
vt 0.459038 0.843654
vt 0.459038 0.771731
vt 0.310192 0.771731
vt 0.843654 0.459038
vt 0.843654 0.310192
vt 0.771731 0.310192
vt 0.771731 0.459038
vt 0.156346 0.843654
vt 0.305192 0.843654
vt 0.305192 0.771731
vt 0.156346 0.771731
vt 0.464038 0.310192
vt 0.464038 0.456538
vt 0.533462 0.310192
vt 0.766731 0.843654
vt 0.620385 0.843654
vt 0.766731 0.774231
vt 0.843654 0.151346
vt 0.843654 0.005000
vt 0.774231 0.151346
vt 0.617885 0.771731
vt 0.764231 0.771731
vt 0.617885 0.841154
vt 0.459038 0.310192
vt 0.310192 0.310192
vt 0.310192 0.459038
vt 0.459038 0.459038
vt 0.612885 0.002500
vt 0.464038 0.002500
vt 0.464038 0.151346
vt 0.612885 0.151346
vt 0.841154 0.002500
vt 0.771731 0.148846
vt 0.771731 0.002500
vt 0.466538 0.459038
vt 0.535962 0.312692
vt 0.535962 0.459038
vt 0.305192 0.464038
vt 0.156346 0.464038
vt 0.156346 0.612885
vt 0.305192 0.612885
vt 0.612885 0.156346
vt 0.464038 0.156346
vt 0.464038 0.305192
vt 0.612885 0.305192
vt 0.151346 0.697308
vt 0.005000 0.766731
vt 0.151346 0.766731
vt 0.002500 0.764231
vt 0.148846 0.694808
vt 0.002500 0.694808
vt 0.766731 0.612885
vt 0.766731 0.464038
vt 0.694808 0.464038
vt 0.694808 0.612885
vt 0.617885 0.689808
vt 0.766731 0.689808
vt 0.766731 0.617885
vt 0.617885 0.617885
vt 0.766731 0.459038
vt 0.766731 0.310192
vt 0.694808 0.310192
vt 0.694808 0.459038
vt 0.464038 0.766731
vt 0.612885 0.766731
vt 0.612885 0.694808
vt 0.464038 0.694808
vt 0.766731 0.305192
vt 0.766731 0.156346
vt 0.694808 0.156346
vt 0.694808 0.305192
vt 0.310192 0.766731
vt 0.459038 0.766731
vt 0.459038 0.694808
vt 0.310192 0.694808
vt 0.766731 0.151346
vt 0.766731 0.002500
vt 0.694808 0.002500
vt 0.694808 0.151346
vt 0.156346 0.766731
vt 0.305192 0.766731
vt 0.305192 0.694808
vt 0.156346 0.694808
s 0
f 18/1/1 2/2/1 12/3/1
f 16/4/2 2/5/2 13/6/2
f 17/7/3 2/8/3 14/9/3
f 15/10/4 2/11/4 11/12/4
f 10/13/5 9/14/5 4/15/5 7/16/5
f 8/17/6 10/18/6 7/19/6 1/20/6
f 14/21/7 2/22/7 15/23/7
f 12/24/8 2/25/8 16/26/8
f 3/27/9 6/28/9 10/29/9 8/30/9
f 6/31/10 5/32/10 9/33/10 10/34/10
f 13/35/11 2/36/11 17/37/11
f 11/38/12 2/39/12 18/40/12
f 1/41/13 11/42/13 18/43/13 8/44/13
f 5/45/14 13/46/14 17/47/14 9/48/14
f 3/49/15 12/50/15 16/51/15 6/52/15
f 4/53/16 14/54/16 15/55/16 7/56/16
f 7/57/17 15/58/17 11/59/17 1/60/17
f 9/61/18 17/62/18 14/63/18 4/64/18
f 6/65/19 16/66/19 13/67/19 5/68/19
f 8/69/20 18/70/20 12/71/20 3/72/20
f 36/73/21 32/74/21 22/75/21 28/76/21
f 42/77/22 38/78/22 26/79/22 29/80/22
f 35/81/23 34/82/23 24/83/23 30/84/23
f 41/85/24 40/86/24 20/87/24 27/88/24
f 44/89/25 33/90/25 23/91/25 39/92/25
f 43/93/26 32/94/26 20/95/26 40/96/26
f 39/97/27 41/98/27 27/99/27 19/100/27
f 33/101/28 35/102/28 30/103/28 23/104/28
f 37/105/29 42/106/29 29/107/29 25/108/29
f 31/109/30 36/110/30 28/111/30 21/112/30
f 19/113/31 27/114/31 36/115/31 31/116/31
f 25/117/32 29/118/32 35/119/32 33/120/32
f 38/121/26 22/122/26 32/123/26 43/124/26
f 37/125/25 25/126/25 33/127/25 44/128/25
f 29/129/33 26/130/33 34/131/33 35/132/33
f 27/133/34 20/134/34 32/135/34 36/136/34
f 21/137/25 37/138/25 44/139/25 31/140/25
f 26/141/26 38/142/26 43/143/26 34/144/26
f 21/145/35 28/146/35 42/147/35 37/148/35
f 23/149/36 30/150/36 41/151/36 39/152/36
f 34/153/26 43/154/26 40/155/26 24/156/26
f 31/157/25 44/158/25 39/159/25 19/160/25
f 30/161/37 24/162/37 40/163/37 41/164/37
f 28/165/38 22/166/38 38/167/38 42/168/38
f 62/169/39 46/170/39 56/171/39
f 60/172/40 46/173/40 57/174/40
f 61/175/41 46/176/41 58/177/41
f 59/178/42 46/179/42 55/180/42
f 54/181/43 53/182/43 48/183/43 51/184/43
f 52/185/44 54/186/44 51/187/44 45/188/44
f 58/189/42 46/190/42 59/191/42
f 56/192/40 46/193/40 60/194/40
f 47/195/45 50/196/45 54/197/45 52/198/45
f 50/199/46 49/200/46 53/201/46 54/202/46
f 57/203/41 46/204/41 61/205/41
f 55/206/39 46/207/39 62/208/39
f 45/209/47 55/210/47 62/211/47 52/212/47
f 49/213/48 57/214/48 61/215/48 53/216/48
f 47/217/49 56/218/49 60/219/49 50/220/49
f 48/221/50 58/222/50 59/223/50 51/224/50
f 51/225/51 59/226/51 55/227/51 45/228/51
f 53/229/52 61/230/52 58/231/52 48/232/52
f 50/233/53 60/234/53 57/235/53 49/236/53
f 52/237/54 62/238/54 56/239/54 47/240/54
f 80/241/55 64/242/55 74/243/55
f 78/244/56 64/245/56 75/246/56
f 79/247/57 64/248/57 76/249/57
f 77/250/58 64/251/58 73/252/58
f 72/253/59 71/254/59 66/255/59 69/256/59
f 70/257/60 72/258/60 69/259/60 63/260/60
f 76/261/58 64/262/58 77/263/58
f 74/264/56 64/265/56 78/266/56
f 65/267/61 68/268/61 72/269/61 70/270/61
f 68/271/62 67/272/62 71/273/62 72/274/62
f 75/275/57 64/276/57 79/277/57
f 73/278/55 64/279/55 80/280/55
f 63/281/63 73/282/63 80/283/63 70/284/63
f 67/285/64 75/286/64 79/287/64 71/288/64
f 65/289/65 74/290/65 78/291/65 68/292/65
f 66/293/66 76/294/66 77/295/66 69/296/66
f 69/297/67 77/298/67 73/299/67 63/300/67
f 71/301/68 79/302/68 76/303/68 66/304/68
f 68/305/69 78/306/69 75/307/69 67/308/69
f 70/309/70 80/310/70 74/311/70 65/312/70
f 98/313/71 82/314/71 92/315/71
f 96/316/72 82/317/72 93/318/72
f 97/319/73 82/320/73 94/321/73
f 95/322/74 82/323/74 91/324/74
f 90/325/75 89/326/75 84/327/75 87/328/75
f 88/329/76 90/330/76 87/331/76 81/332/76
f 94/333/74 82/334/74 95/335/74
f 92/336/72 82/337/72 96/338/72
f 83/339/77 86/340/77 90/341/77 88/342/77
f 86/343/78 85/344/78 89/345/78 90/346/78
f 93/347/73 82/348/73 97/349/73
f 91/350/71 82/351/71 98/352/71
f 81/353/79 91/354/79 98/355/79 88/356/79
f 85/357/80 93/358/80 97/359/80 89/360/80
f 83/361/81 92/362/81 96/363/81 86/364/81
f 84/365/82 94/366/82 95/367/82 87/368/82
f 87/369/83 95/370/83 91/371/83 81/372/83
f 89/373/84 97/374/84 94/375/84 84/376/84
f 86/377/85 96/378/85 93/379/85 85/380/85
f 88/381/86 98/382/86 92/383/86 83/384/86
