# Blender 4.1.1
# www.blender.org
o Sphere
v -0.018731 0.185409 -0.205456
v -0.048461 0.006569 -0.178955
v 0.041900 0.219565 -0.152626
v 0.076123 0.166042 -0.179822
v 0.070120 0.085755 -0.178182
v 0.046224 0.008205 -0.138353
v 0.012472 -0.033790 -0.103354
v 0.087142 0.211343 -0.109826
v 0.128276 0.158266 -0.144090
v 0.151054 0.069540 -0.120604
v 0.109173 0.006833 -0.115217
v 0.049136 -0.054786 -0.039683
v 0.096869 0.235235 -0.031518
v 0.172348 0.173370 -0.036786
v 0.187024 0.075750 -0.064442
v 0.148636 -0.003234 -0.026110
v 0.085288 -0.029375 -0.021953
v 0.098525 0.240569 0.022181
v 0.156271 0.180357 0.057460
v 0.170657 0.101575 0.080256
v 0.153789 0.020004 0.062912
v 0.072110 -0.021839 0.026948
v 0.071442 0.252586 0.042638
v 0.093435 0.166961 0.122456
v 0.124879 0.109808 0.138964
v 0.084968 0.045293 0.127676
v 0.033820 -0.028086 0.089395
v 0.030900 0.268539 0.071996
v 0.014097 0.222293 0.138329
v 0.018251 0.125379 0.149779
v 0.004051 0.043326 0.174000
v -0.011672 -0.019916 0.100350
v -0.004897 0.245965 -0.039328
v -0.021136 0.270364 0.044589
v -0.066293 0.222261 0.137759
v -0.076077 0.145962 0.155538
v -0.077093 0.057098 0.133180
v -0.048314 0.005006 0.088272
v -0.031475 -0.065952 0.024807
v -0.060077 0.278876 0.030827
v -0.124854 0.226003 0.067430
v -0.163074 0.143946 0.108935
v -0.139966 0.047265 0.106637
v -0.097244 0.002079 0.042501
v -0.075355 0.245448 -0.020614
v -0.172313 0.203900 -0.000967
v -0.207015 0.138717 -0.002331
v -0.200174 0.057101 0.012157
v -0.124493 -0.018261 0.016634
v -0.084953 0.255674 -0.052572
v -0.161020 0.202160 -0.104176
v -0.194240 0.128582 -0.058674
v -0.185310 0.036770 -0.063218
v -0.133447 -0.014740 -0.049803
v -0.060041 0.251561 -0.092392
v -0.119913 0.192854 -0.160328
v -0.119808 0.097880 -0.155056
v -0.140411 0.039122 -0.112739
v -0.086766 -0.018622 -0.066299
v -0.015165 0.230525 -0.116579
v -0.035194 0.087968 -0.181933
v -0.042274 -0.020967 -0.098745
vn 0.0574 -0.8608 -0.5058
vn 0.1271 -0.1548 -0.9797
vn 0.0593 0.9773 -0.2032
vn -0.2415 -0.9184 -0.3133
vn 0.2058 -0.2991 -0.9318
vn 0.1111 0.7716 -0.6264
vn 0.5648 -0.0662 -0.8226
vn 0.2762 0.9550 -0.1085
vn -0.0823 -0.9596 -0.2690
vn 0.3962 -0.4448 -0.8032
vn 0.5284 0.6724 -0.5183
vn 0.2747 -0.8068 -0.5231
vn 0.1229 0.9449 -0.3035
vn 0.4085 -0.8363 0.3658
vn 0.7398 -0.5421 -0.3985
vn 0.6045 0.7260 -0.3278
vn 0.4722 -0.8558 -0.2113
vn 0.8728 0.1855 -0.4515
vn 0.3762 -0.8951 0.2393
vn 0.9441 -0.3105 0.1105
vn 0.6750 0.7378 0.0044
vn 0.3733 -0.9006 0.2227
vn 0.9810 0.1586 0.1114
vn 0.1120 0.9885 -0.1016
vn 0.3851 -0.9114 0.1450
vn 0.6256 -0.3770 0.6830
vn 0.4938 0.6888 0.5307
vn 0.4159 -0.7803 0.4670
vn 0.6783 0.4058 0.6125
vn 0.2109 0.9388 -0.2723
vn -0.0263 -0.8506 0.5252
vn 0.2899 -0.0226 0.9568
vn 0.5714 0.6193 0.5385
vn 0.2721 -0.6860 0.6748
vn 0.2214 0.2234 0.9492
vn 0.1898 0.9486 -0.2534
vn -0.1906 0.0277 0.9813
vn -0.0898 0.8721 0.4810
vn -0.4780 -0.6553 0.5849
vn 0.0486 0.1647 0.9852
vn 0.1632 0.9554 -0.2462
vn -0.5898 -0.6116 0.5273
vn -0.2702 0.8573 0.4382
vn -0.2597 -0.7989 0.5425
vn -0.5611 0.4340 0.7049
vn 0.2811 0.9347 -0.2174
vn -0.5048 -0.6390 0.5805
vn -0.4215 -0.1686 0.8910
vn -0.5207 -0.7303 0.4422
vn -0.8049 0.4899 0.3349
vn -0.1415 0.8488 -0.5095
vn -0.3404 -0.5309 0.7761
vn -0.8870 -0.1185 0.4463
vn -0.5298 0.8407 -0.1122
vn -0.7080 -0.7041 0.0540
vn -0.9055 0.3906 -0.1657
vn 0.0688 0.9560 0.2852
vn -0.4572 -0.8892 0.0145
vn -0.9782 -0.0994 -0.1823
vn -0.4878 0.8716 0.0486
vn -0.4181 -0.7125 -0.5635
vn -0.7999 -0.0235 -0.5997
vn 0.1244 0.9919 -0.0246
vn -0.2007 -0.9139 -0.3529
vn -0.7795 -0.0949 -0.6191
vn -0.3718 0.8494 -0.3745
vn -0.4556 -0.8231 -0.3390
vn -0.3680 -0.1069 -0.9237
vn 0.3110 0.9232 -0.2259
vn -0.2727 -0.9115 -0.3080
vn -0.4901 -0.1586 -0.8571
vn -0.0846 0.8462 -0.5260
vt 0.750000 0.166667
vt 0.750000 0.333333
vt 0.666667 0.333333
vt 0.666667 0.166667
vt 0.750000 0.500000
vt 0.750000 0.666667
vt 0.666667 0.666667
vt 0.666667 0.500000
vt 0.750000 0.833333
vt 0.708333 1.000000
vt 0.666667 0.833333
vt 0.708333 0.000000
vt 0.583333 0.666667
vt 0.583333 0.500000
vt 0.625000 1.000000
vt 0.583333 0.833333
vt 0.625000 0.000000
vt 0.583333 0.166667
vt 0.583333 0.333333
vt 0.541667 1.000000
vt 0.500000 0.833333
vt 0.541667 0.000000
vt 0.500000 0.166667
vt 0.500000 0.500000
vt 0.500000 0.333333
vt 0.500000 0.666667
vt 0.458333 0.000000
vt 0.416667 0.166667
vt 0.416667 0.500000
vt 0.416667 0.333333
vt 0.416667 0.833333
vt 0.416667 0.666667
vt 0.458333 1.000000
vt 0.375000 0.000000
vt 0.333333 0.166667
vt 0.333333 0.500000
vt 0.333333 0.333333
vt 0.333333 0.833333
vt 0.333333 0.666667
vt 0.375000 1.000000
vt 0.291667 0.000000
vt 0.250000 0.166667
vt 0.250000 0.500000
vt 0.250000 0.333333
vt 0.250000 0.833333
vt 0.250000 0.666667
vt 0.291667 1.000000
vt 0.166667 0.500000
vt 0.166667 0.333333
vt 0.166667 0.833333
vt 0.166667 0.666667
vt 0.166667 0.166667
vt 0.208333 1.000000
vt 0.208333 0.000000
vt 0.083333 0.833333
vt 0.083333 0.666667
vt 0.083333 0.333333
vt 0.083333 0.166667
vt 0.083333 0.500000
vt 0.125000 1.000000
vt 0.125000 0.000000
vt 0.000000 0.333333
vt 0.000000 0.166667
vt 0.000000 0.666667
vt 0.000000 0.500000
vt 0.041667 1.000000
vt 0.000000 0.833333
vt 0.041667 0.000000
vt 1.000000 0.166667
vt 1.000000 0.333333
vt 0.916667 0.333333
vt 0.916667 0.166667
vt 1.000000 0.500000
vt 1.000000 0.666667
vt 0.916667 0.666667
vt 0.916667 0.500000
vt 1.000000 0.833333
vt 0.958333 1.000000
vt 0.916667 0.833333
vt 0.958333 0.000000
vt 0.833333 0.333333
vt 0.833333 0.166667
vt 0.833333 0.666667
vt 0.833333 0.500000
vt 0.875000 1.000000
vt 0.833333 0.833333
vt 0.875000 0.000000
vt 0.791667 1.000000
vt 0.791667 0.000000
s 0
f 62/1/1 2/2/1 6/3/1 7/4/1
f 61/5/2 1/6/2 4/7/2 5/8/2
f 60/9/3 33/10/3 3/11/3
f 39/12/4 62/1/4 7/4/4
f 2/2/5 61/5/5 5/8/5 6/3/5
f 1/6/6 60/9/6 3/11/6 4/7/6
f 5/8/7 4/7/7 9/13/7 10/14/7
f 3/11/8 33/15/8 8/16/8
f 39/17/9 7/4/9 12/18/9
f 6/3/10 5/8/10 10/14/10 11/19/10
f 4/7/11 3/11/11 8/16/11 9/13/11
f 7/4/12 6/3/12 11/19/12 12/18/12
f 8/16/13 33/20/13 13/21/13
f 39/22/14 12/18/14 17/23/14
f 11/19/15 10/14/15 15/24/15 16/25/15
f 9/13/16 8/16/16 13/21/16 14/26/16
f 12/18/17 11/19/17 16/25/17 17/23/17
f 10/14/18 9/13/18 14/26/18 15/24/18
f 39/27/19 17/23/19 22/28/19
f 16/25/20 15/24/20 20/29/20 21/30/20
f 14/26/21 13/21/21 18/31/21 19/32/21
f 17/23/22 16/25/22 21/30/22 22/28/22
f 15/24/23 14/26/23 19/32/23 20/29/23
f 13/21/24 33/33/24 18/31/24
f 39/34/25 22/28/25 27/35/25
f 21/30/26 20/29/26 25/36/26 26/37/26
f 19/32/27 18/31/27 23/38/27 24/39/27
f 22/28/28 21/30/28 26/37/28 27/35/28
f 20/29/29 19/32/29 24/39/29 25/36/29
f 18/31/30 33/40/30 23/38/30
f 39/41/31 27/35/31 32/42/31
f 26/37/32 25/36/32 30/43/32 31/44/32
f 24/39/33 23/38/33 28/45/33 29/46/33
f 27/35/34 26/37/34 31/44/34 32/42/34
f 25/36/35 24/39/35 29/46/35 30/43/35
f 23/38/36 33/47/36 28/45/36
f 31/44/37 30/43/37 36/48/37 37/49/37
f 29/46/38 28/45/38 34/50/38 35/51/38
f 32/42/39 31/44/39 37/49/39 38/52/39
f 30/43/40 29/46/40 35/51/40 36/48/40
f 28/45/41 33/53/41 34/50/41
f 39/54/42 32/42/42 38/52/42
f 35/51/43 34/50/43 40/55/43 41/56/43
f 38/52/44 37/49/44 43/57/44 44/58/44
f 36/48/45 35/51/45 41/56/45 42/59/45
f 34/50/46 33/60/46 40/55/46
f 39/61/47 38/52/47 44/58/47
f 37/49/48 36/48/48 42/59/48 43/57/48
f 44/58/49 43/57/49 48/62/49 49/63/49
f 42/59/50 41/56/50 46/64/50 47/65/50
f 40/55/51 33/66/51 45/67/51
f 39/68/52 44/58/52 49/63/52
f 43/57/53 42/59/53 47/65/53 48/62/53
f 41/56/54 40/55/54 45/67/54 46/64/54
f 49/69/55 48/70/55 53/71/55 54/72/55
f 47/73/56 46/74/56 51/75/56 52/76/56
f 45/77/57 33/78/57 50/79/57
f 39/80/58 49/69/58 54/72/58
f 48/70/59 47/73/59 52/76/59 53/71/59
f 46/74/60 45/77/60 50/79/60 51/75/60
f 54/72/61 53/71/61 58/81/61 59/82/61
f 52/76/62 51/75/62 56/83/62 57/84/62
f 50/79/63 33/85/63 55/86/63
f 39/87/64 54/72/64 59/82/64
f 53/71/65 52/76/65 57/84/65 58/81/65
f 51/75/66 50/79/66 55/86/66 56/83/66
f 59/82/67 58/81/67 2/2/67 62/1/67
f 57/84/68 56/83/68 1/6/68 61/5/68
f 55/86/69 33/88/69 60/9/69
f 39/89/70 59/82/70 62/1/70
f 58/81/71 57/84/71 61/5/71 2/2/71
f 56/83/72 55/86/72 60/9/72 1/6/72
