{"accessors":[{"bufferView":0,"byteOffset":0,"componentType":5126,"count":1812,"max":[-109.408173,0.176461,55.171562],"min":[-140.03093,0.011929,11.449892],"normalized":false,"type":"VEC3"},{"bufferView":1,"byteOffset":0,"componentType":5126,"count":1812,"max":[0.904821,0.000399,0.875727,1],"min":[-0.981977,-0.000872,-0.994693,1],"normalized":false,"type":"VEC4"},{"bufferView":2,"byteOffset":0,"componentType":5126,"count":1812,"max":[0.504161,0.999682,0.904791],"min":[-0.947923,-0.999994,-0.368473],"normalized":false,"type":"VEC3"},{"bufferView":3,"byteOffset":0,"componentType":5126,"count":1812,"max":[74.184494,1],"min":[0,0],"normalized":false,"type":"VEC2"},{"bufferView":4,"byteOffset":0,"componentType":5125,"count":1812,"max":[1811],"min":[0],"normalized":false,"type":"SCALAR"},{"bufferView":5,"byteOffset":0,"componentType":5126,"count":24,"max":[2.39576,1.130517,0],"min":[-1.170625,-1,0],"normalized":false,"type":"VEC3"},{"bufferView":6,"byteOffset":0,"componentType":5126,"count":24,"max":[1,0.8,0.8,0.8],"min":[0.8,0.298039,0.098039,0.2],"normalized":false,"type":"VEC4"},{"bufferView":7,"byteOffset":0,"componentType":5126,"count":4,"max":[1.39576,0.130517,0],"min":[-0.170625,0,0],"normalized":false,"type":"VEC3"},{"bufferView":8,"byteOffset":0,"componentType":5126,"count":84,"max":[1.31619,1.35058,0],"min":[0.262808,0.244253,-0.04],"normalized":false,"type":"VEC3"},{"bufferView":9,"byteOffset":0,"componentType":5126,"count":84,"max":[1,0,0.000015,1],"min":[-1,-0.000015,-1,1],"normalized":false,"type":"VEC4"},{"bufferView":10,"byteOffset":0,"componentType":5126,"count":84,"max":[0.992699,0.961123,1],"min":[-0.999014,-0.977087,-1],"normalized":false,"type":"VEC3"},{"bufferView":11,"byteOffset":0,"componentType":5126,"count":84,"max":[1,1],"min":[0,0],"normalized":false,"type":"VEC2"},{"bufferView":12,"byteOffset":0,"componentType":5125,"count":84,"max":[83],"min":[0],"normalized":false,"type":"SCALAR"},{"bufferView":13,"byteOffset":0,"componentType":5126,"count":84,"max":[1.31619,1.35058,0],"min":[0.262808,0.244253,-0.04],"normalized":false,"type":"VEC3"},{"bufferView":14,"byteOffset":0,"componentType":5126,"count":84,"max":[1,0,0.000015,1],"min":[-1,-0.000015,-1,1],"normalized":false,"type":"VEC4"},{"bufferView":15,"byteOffset":0,"componentType":5126,"count":84,"max":[0.992699,0.961123,1],"min":[-0.999014,-0.977087,-1],"normalized":false,"type":"VEC3"},{"bufferView":16,"byteOffset":0,"componentType":5126,"count":84,"max":[1,1],"min":[0,0],"normalized":false,"type":"VEC2"},{"bufferView":17,"byteOffset":0,"componentType":5125,"count":84,"max":[83],"min":[0],"normalized":false,"type":"SCALAR"},{"bufferView":18,"byteOffset":0,"componentType":5126,"count":4,"max":[1.39576,0.130517,0],"min":[-0.170625,0,0],"normalized":false,"type":"VEC3"},{"bufferView":19,"byteOffset":0,"componentType":5126,"count":1476,"max":[0.101574,0.2391,44.718422],"min":[-4.913394,-0.014312,-14.725584],"normalized":false,"type":"VEC3"},{"bufferView":20,"byteOffset":0,"componentType":5126,"count":1476,"max":[0.937222,0.046941,0.999997,1],"min":[-0.995351,-0.042839,-0.085966,1],"normalized":false,"type":"VEC4"},{"bufferView":21,"byteOffset":0,"componentType":5126,"count":1476,"max":[0.964723,0.999999,0.938091],"min":[-0.972189,-0.999813,-0.995501],"normalized":false,"type":"VEC3"},{"bufferView":22,"byteOffset":0,"componentType":5126,"count":1476,"max":[60.112724,1],"min":[0,0],"normalized":false,"type":"VEC2"},{"bufferView":23,"byteOffset":0,"componentType":5125,"count":1476,"max":[1475],"min":[0],"normalized":false,"type":"SCALAR"},{"bufferView":24,"byteOffset":0,"componentType":5126,"count":636,"max":[-1.079111,0.15032,25.318054],"min":[-26.662228,0.017429,20.514763],"normalized":false,"type":"VEC3"},{"bufferView":25,"byteOffset":0,"componentType":5126,"count":636,"max":[-0.013657,0.000126,0.999907,1],"min":[-0.999915,-0.000062,-0.99647,1],"normalized":false,"type":"VEC4"},{"bufferView":26,"byteOffset":0,"componentType":5126,"count":636,"max":[0.996471,0.999659,0.952485],"min":[-0.999907,-0.999992,-0.223873],"normalized":false,"type":"VEC3"},{"bufferView":27,"byteOffset":0,"componentType":5126,"count":636,"max":[25.851974,1],"min":[0,0],"normalized":false,"type":"VEC2"},{"bufferView":28,"byteOffset":0,"componentType":5125,"count":636,"max":[635],"min":[0],"normalized":false,"type":"SCALAR"},{"bufferView":29,"byteOffset":0,"componentType":5126,"count":1404,"max":[24.103746,0.152455,28.105547],"min":[-26.701941,0.005843,7.37212],"normalized":false,"type":"VEC3"},{"bufferView":30,"byteOffset":0,"componentType":5126,"count":1404,"max":[0.979482,0.000402,0.843887,1],"min":[0.536521,-0.000464,-0.835918,1],"normalized":false,"type":"VEC4"},{"bufferView":31,"byteOffset":0,"componentType":5126,"count":1404,"max":[0.83589,0.999661,0.548897],"min":[-0.84389,-0.999992,-0.937022],"normalized":false,"type":"VEC3"},{"bufferView":32,"byteOffset":0,"componentType":5126,"count":1404,"max":[57.313908,1],"min":[0,0],"normalized":false,"type":"VEC2"},{"bufferView":33,"byteOffset":0,"componentType":5125,"count":1404,"max":[1403],"min":[0],"normalized":false,"type":"SCALAR"},{"bufferView":34,"byteOffset":0,"componentType":5126,"count":1260,"max":[24.136213,0.158219,35.56525],"min":[-23.938284,0.010561,13.73993],"normalized":false,"type":"VEC3"},{"bufferView":35,"byteOffset":0,"componentType":5126,"count":1260,"max":[0.953569,0.00004,0.953577,1],"min":[-0.382246,-0.000414,-0.92406,1],"normalized":false,"type":"VEC4"},{"bufferView":36,"byteOffset":0,"componentType":5126,"count":1260,"max":[0.924084,0.999658,0.301171],"min":[-0.953585,-0.999992,-0.908065],"normalized":false,"type":"VEC3"},{"bufferView":37,"byteOffset":0,"componentType":5126,"count":1260,"max":[51.82402,1],"min":[0,0],"normalized":false,"type":"VEC2"},{"bufferView":38,"byteOffset":0,"componentType":5125,"count":1260,"max":[1259],"min":[0],"normalized":false,"type":"SCALAR"},{"bufferView":39,"byteOffset":0,"componentType":5126,"count":900,"max":[-33.138783,0.202299,89.349709],"min":[-36.009674,0.04253,52.60791],"normalized":false,"type":"VEC3"},{"bufferView":40,"byteOffset":0,"componentType":5126,"count":900,"max":[0.996995,0.000792,0.999887,1],"min":[-0.999065,-0.000016,0.043245,1],"normalized":false,"type":"VEC4"},{"bufferView":41,"byteOffset":0,"componentType":5126,"count":900,"max":[0.952217,0.999657,0.996996],"min":[-0.223294,-0.999992,-0.999063],"normalized":false,"type":"VEC3"},{"bufferView":42,"byteOffset":0,"componentType":5126,"count":900,"max":[36.791092,1],"min":[0,0],"normalized":false,"type":"VEC2"},{"bufferView":43,"byteOffset":0,"componentType":5125,"count":900,"max":[899],"min":[0],"normalized":false,"type":"SCALAR"},{"bufferView":44,"byteOffset":0,"componentType":5126,"count":3516,"max":[73.385757,0.24006,139.969604],"min":[-26.396219,0.035091,43.326691],"normalized":false,"type":"VEC3"},{"bufferView":45,"byteOffset":0,"componentType":5126,"count":3516,"max":[0.978405,0.000643,0.894595,1],"min":[-0.548184,-0.000021,-0.468266,1],"normalized":false,"type":"VEC4"},{"bufferView":46,"byteOffset":0,"componentType":5126,"count":3516,"max":[0.85158,0.999661,0.883581],"min":[-0.836365,-0.999992,-0.9316],"normalized":false,"type":"VEC3"},{"bufferView":47,"byteOffset":0,"componentType":5126,"count":3516,"max":[145.581589,1],"min":[0,0],"normalized":false,"type":"VEC2"},{"bufferView":48,"byteOffset":0,"componentType":5125,"count":3516,"max":[3515],"min":[0],"normalized":false,"type":"SCALAR"},{"bufferView":49,"byteOffset":0,"componentType":5126,"count":1308,"max":[66.806831,0.183404,68.366829],"min":[28.057564,0.024091,32.163338],"normalized":false,"type":"VEC3"},{"bufferView":50,"byteOffset":0,"componentType":5126,"count":1308,"max":[0.906767,0.000332,0.906783,1],"min":[-0.875804,-0.000749,-0.876752,1],"normalized":false,"type":"VEC4"},{"bufferView":51,"byteOffset":0,"componentType":5126,"count":1308,"max":[0.482719,0.999657,0.421624],"min":[-0.906778,-0.999992,-0.875785],"normalized":false,"type":"VEC3"},{"bufferView":52,"byteOffset":0,"componentType":5126,"count":1308,"max":[53.415337,1],"min":[0,0],"normalized":false,"type":"VEC2"},{"bufferView":53,"byteOffset":0,"componentType":5125,"count":1308,"max":[1307],"min":[0],"normalized":false,"type":"SCALAR"},{"bufferView":54,"byteOffset":0,"componentType":5126,"count":1068,"max":[-50.239742,0.182865,63.793564],"min":[-88.84362,0.035843,42.676735],"normalized":false,"type":"VEC3"},{"bufferView":55,"byteOffset":0,"componentType":5126,"count":1068,"max":[0.376558,0.000403,0.926393,1],"min":[-0.929478,0,-0.828414,1],"normalized":false,"type":"VEC4"},{"bufferView":56,"byteOffset":0,"componentType":5126,"count":1068,"max":[0.828469,0.999658,0.882271],"min":[-0.926393,-0.999992,-0.560035],"normalized":false,"type":"VEC3"},{"bufferView":57,"byteOffset":0,"componentType":5126,"count":1068,"max":[43.066185,1],"min":[0,0],"normalized":false,"type":"VEC2"},{"bufferView":58,"byteOffset":0,"componentType":5125,"count":1068,"max":[1067],"min":[0],"normalized":false,"type":"SCALAR"},{"bufferView":59,"byteOffset":0,"componentType":5126,"count":1452,"max":[-128.424988,0.229498,121.109543],"min":[-158.885696,0.060631,71.968246],"normalized":false,"type":"VEC3"},{"bufferView":60,"byteOffset":0,"componentType":5126,"count":1452,"max":[0.977163,0.000761,0.986364,1],"min":[-0.835343,-0.000872,-0.834546,1],"normalized":false,"type":"VEC4"},{"bufferView":61,"byteOffset":0,"componentType":5126,"count":1452,"max":[0.933703,0.999679,0.977161],"min":[-0.228753,-0.999995,-0.550951],"normalized":false,"type":"VEC3"},{"bufferView":62,"byteOffset":0,"componentType":5126,"count":1452,"max":[59.868027,1],"min":[0,0],"normalized":false,"type":"VEC2"},{"bufferView":63,"byteOffset":0,"componentType":5125,"count":1452,"max":[1451],"min":[0],"normalized":false,"type":"SCALAR"}],"asset":{"generator":"Godot Engine v4.1.3.stable.mono.official@f06b6836a9ecfd0e6ec96d8bcf0fe9c9bc10dcbf","version":"2.0"},"bufferViews":[{"buffer":0,"byteLength":21744,"byteOffset":0},{"buffer":0,"byteLength":28992,"byteOffset":21744},{"buffer":0,"byteLength":21744,"byteOffset":50736},{"buffer":0,"byteLength":14496,"byteOffset":72480},{"buffer":0,"byteLength":7248,"byteOffset":86976},{"buffer":0,"byteLength":288,"byteOffset":94224},{"buffer":0,"byteLength":384,"byteOffset":94512},{"buffer":0,"byteLength":48,"byteOffset":94896},{"buffer":0,"byteLength":1008,"byteOffset":94944},{"buffer":0,"byteLength":1344,"byteOffset":95952},{"buffer":0,"byteLength":1008,"byteOffset":97296},{"buffer":0,"byteLength":672,"byteOffset":98304},{"buffer":0,"byteLength":336,"byteOffset":98976},{"buffer":0,"byteLength":1008,"byteOffset":99312},{"buffer":0,"byteLength":1344,"byteOffset":100320},{"buffer":0,"byteLength":1008,"byteOffset":101664},{"buffer":0,"byteLength":672,"byteOffset":102672},{"buffer":0,"byteLength":336,"byteOffset":103344},{"buffer":0,"byteLength":48,"byteOffset":103680},{"buffer":0,"byteLength":17712,"byteOffset":103728},{"buffer":0,"byteLength":23616,"byteOffset":121440},{"buffer":0,"byteLength":17712,"byteOffset":145056},{"buffer":0,"byteLength":11808,"byteOffset":162768},{"buffer":0,"byteLength":5904,"byteOffset":174576},{"buffer":0,"byteLength":7632,"byteOffset":180480},{"buffer":0,"byteLength":10176,"byteOffset":188112},{"buffer":0,"byteLength":7632,"byteOffset":198288},{"buffer":0,"byteLength":5088,"byteOffset":205920},{"buffer":0,"byteLength":2544,"byteOffset":211008},{"buffer":0,"byteLength":16848,"byteOffset":213552},{"buffer":0,"byteLength":22464,"byteOffset":230400},{"buffer":0,"byteLength":16848,"byteOffset":252864},{"buffer":0,"byteLength":11232,"byteOffset":269712},{"buffer":0,"byteLength":5616,"byteOffset":280944},{"buffer":0,"byteLength":15120,"byteOffset":286560},{"buffer":0,"byteLength":20160,"byteOffset":301680},{"buffer":0,"byteLength":15120,"byteOffset":321840},{"buffer":0,"byteLength":10080,"byteOffset":336960},{"buffer":0,"byteLength":5040,"byteOffset":347040},{"buffer":0,"byteLength":10800,"byteOffset":352080},{"buffer":0,"byteLength":14400,"byteOffset":362880},{"buffer":0,"byteLength":10800,"byteOffset":377280},{"buffer":0,"byteLength":7200,"byteOffset":388080},{"buffer":0,"byteLength":3600,"byteOffset":395280},{"buffer":0,"byteLength":42192,"byteOffset":398880},{"buffer":0,"byteLength":56256,"byteOffset":441072},{"buffer":0,"byteLength":42192,"byteOffset":497328},{"buffer":0,"byteLength":28128,"byteOffset":539520},{"buffer":0,"byteLength":14064,"byteOffset":567648},{"buffer":0,"byteLength":15696,"byteOffset":581712},{"buffer":0,"byteLength":20928,"byteOffset":597408},{"buffer":0,"byteLength":15696,"byteOffset":618336},{"buffer":0,"byteLength":10464,"byteOffset":634032},{"buffer":0,"byteLength":5232,"byteOffset":644496},{"buffer":0,"byteLength":12816,"byteOffset":649728},{"buffer":0,"byteLength":17088,"byteOffset":662544},{"buffer":0,"byteLength":12816,"byteOffset":679632},{"buffer":0,"byteLength":8544,"byteOffset":692448},{"buffer":0,"byteLength":4272,"byteOffset":700992},{"buffer":0,"byteLength":17424,"byteOffset":705264},{"buffer":0,"byteLength":23232,"byteOffset":722688},{"buffer":0,"byteLength":17424,"byteOffset":745920},{"buffer":0,"byteLength":11616,"byteOffset":763344},{"buffer":0,"byteLength":5808,"byteOffset":774960}],"buffers":[{"byteLength":780768,"uri":"theralin_block_out0.bin"}],"extensionsUsed":["KHR_materials_unlit"],"images":[{"uri":"textures%2F_albedo000.png"},{"uri":"textures%2F_albedo002.png"}],"materials":[{"extensions":{},"pbrMetallicRoughness":{"baseColorFactor":[0.99999988079071,0.99999988079071,0.99999988079071,1],"metallicFactor":0,"roughnessFactor":1}},{"alphaMode":"BLEND","extensions":{"KHR_materials_unlit":{}},"pbrMetallicRoughness":{"baseColorFactor":[0.99999988079071,0.99999988079071,0.99999988079071,1],"metallicFactor":0,"roughnessFactor":1}},{"alphaMode":"BLEND","extensions":{"KHR_materials_unlit":{}},"pbrMetallicRoughness":{"baseColorFactor":[0.99999988079071,0.99999988079071,0.99999988079071,1],"baseColorTexture":{"index":0},"metallicFactor":0,"roughnessFactor":1}},{"extensions":{},"pbrMetallicRoughness":{"baseColorFactor":[0.99999988079071,0.99999988079071,0.99999988079071,1],"metallicFactor":0,"roughnessFactor":1}},{"extensions":{},"pbrMetallicRoughness":{"baseColorFactor":[0.99999988079071,0.99999988079071,0.99999988079071,1],"metallicFactor":0,"roughnessFactor":1}},{"alphaMode":"BLEND","extensions":{"KHR_materials_unlit":{}},"pbrMetallicRoughness":{"baseColorFactor":[0.99999988079071,0.99999988079071,0.99999988079071,1],"baseColorTexture":{"index":1},"metallicFactor":0,"roughnessFactor":1}},{"extensions":{},"pbrMetallicRoughness":{"baseColorFactor":[0.99999988079071,0.99999988079071,0.99999988079071,1],"metallicFactor":0,"roughnessFactor":1}},{"extensions":{},"pbrMetallicRoughness":{"baseColorFactor":[0.99999988079071,0.99999988079071,0.99999988079071,1],"metallicFactor":0,"roughnessFactor":1}},{"extensions":{},"pbrMetallicRoughness":{"baseColorFactor":[0.99999988079071,0.99999988079071,0.99999988079071,1],"metallicFactor":0,"roughnessFactor":1}},{"extensions":{},"pbrMetallicRoughness":{"baseColorFactor":[0.99999988079071,0.99999988079071,0.99999988079071,1],"metallicFactor":0,"roughnessFactor":1}},{"extensions":{},"pbrMetallicRoughness":{"baseColorFactor":[0.99999988079071,0.99999988079071,0.99999988079071,1],"metallicFactor":0,"roughnessFactor":1}},{"extensions":{},"pbrMetallicRoughness":{"baseColorFactor":[0.99999988079071,0.99999988079071,0.99999988079071,1],"metallicFactor":0,"roughnessFactor":1}},{"extensions":{},"pbrMetallicRoughness":{"baseColorFactor":[0.99999988079071,0.99999988079071,0.99999988079071,1],"metallicFactor":0,"roughnessFactor":1}},{"extensions":{},"pbrMetallicRoughness":{"baseColorFactor":[0.99999988079071,0.99999988079071,0.99999988079071,1],"metallicFactor":0,"roughnessFactor":1}},{"extensions":{},"pbrMetallicRoughness":{"baseColorFactor":[0.99999988079071,0.99999988079071,0.99999988079071,1],"metallicFactor":0,"roughnessFactor":1}}],"meshes":[{"extras":{"targetNames":[]},"primitives":[{"attributes":{"NORMAL":2,"POSITION":0,"TANGENT":1,"TEXCOORD_0":3},"indices":4,"material":0,"mode":4}]},{"extras":{"targetNames":[]},"primitives":[{"attributes":{"COLOR_0":6,"POSITION":5},"material":1,"mode":1}]},{"extras":{"targetNames":[]},"primitives":[{"attributes":{"POSITION":7},"material":2,"mode":0}]},{"extras":{"targetNames":[]},"primitives":[{"attributes":{"NORMAL":10,"POSITION":8,"TANGENT":9,"TEXCOORD_0":11},"indices":12,"material":3,"mode":4}]},{"extras":{"targetNames":[]},"primitives":[{"attributes":{"NORMAL":15,"POSITION":13,"TANGENT":14,"TEXCOORD_0":16},"indices":17,"material":4,"mode":4}]},{"extras":{"targetNames":[]},"primitives":[]},{"extras":{"targetNames":[]},"primitives":[{"attributes":{"POSITION":18},"material":5,"mode":0}]},{"extras":{"targetNames":[]},"primitives":[{"attributes":{"NORMAL":21,"POSITION":19,"TANGENT":20,"TEXCOORD_0":22},"indices":23,"material":6,"mode":4}]},{"extras":{"targetNames":[]},"primitives":[{"attributes":{"NORMAL":26,"POSITION":24,"TANGENT":25,"TEXCOORD_0":27},"indices":28,"material":7,"mode":4}]},{"extras":{"targetNames":[]},"primitives":[{"attributes":{"NORMAL":31,"POSITION":29,"TANGENT":30,"TEXCOORD_0":32},"indices":33,"material":8,"mode":4}]},{"extras":{"targetNames":[]},"primitives":[{"attributes":{"NORMAL":36,"POSITION":34,"TANGENT":35,"TEXCOORD_0":37},"indices":38,"material":9,"mode":4}]},{"extras":{"targetNames":[]},"primitives":[{"attributes":{"NORMAL":41,"POSITION":39,"TANGENT":40,"TEXCOORD_0":42},"indices":43,"material":10,"mode":4}]},{"extras":{"targetNames":[]},"primitives":[{"attributes":{"NORMAL":46,"POSITION":44,"TANGENT":45,"TEXCOORD_0":47},"indices":48,"material":11,"mode":4}]},{"extras":{"targetNames":[]},"primitives":[{"attributes":{"NORMAL":51,"POSITION":49,"TANGENT":50,"TEXCOORD_0":52},"indices":53,"material":12,"mode":4}]},{"extras":{"targetNames":[]},"primitives":[{"attributes":{"NORMAL":56,"POSITION":54,"TANGENT":55,"TEXCOORD_0":57},"indices":58,"material":13,"mode":4}]},{"extras":{"targetNames":[]},"primitives":[{"attributes":{"NORMAL":61,"POSITION":59,"TANGENT":60,"TEXCOORD_0":62},"indices":63,"material":14,"mode":4}]}],"nodes":[{"children":[1,4,5,8,9,10,11,12,13,14,15,16],"extensions":{},"name":"Roads"},{"children":[2],"extensions":{},"mesh":0,"name":"CSGPolygon3D92","translation":[31.9888000488281,0.01592249982059,20.7670001983643]},{"children":[3],"extensions":{},"mesh":1,"name":"_MeshInstance3D_21271","translation":[0,0,0.00000999999974737875]},{"extensions":{},"mesh":2,"name":"_MeshInstance3D_14095","translation":[0,0,0.00000999999974737875]},{"extensions":{},"mesh":3,"name":"Square2","rotation":[0.70710676908493,0,0,0.70710676908493],"scale":[30,30,30],"translation":[-29.8253993988037,-1.17062997817993,35.755199432373]},{"children":[6],"extensions":{},"mesh":4,"name":"Square23","rotation":[0.70710676908493,0,0,0.70710676908493],"scale":[15,15,15],"translation":[-46.2710990905762,-0.32744398713112,15.4628000259399]},{"children":[7],"extensions":{},"mesh":5,"name":"_MeshInstance3D_58343","translation":[0,0,0.00000999999974737875]},{"extensions":{},"mesh":6,"name":"_MeshInstance3D_140952","translation":[0,0,0.00000999999974737875]},{"extensions":{},"mesh":7,"name":"CSGPolygon3D2","translation":[0,-0.13736900687218,0]},{"extensions":{},"mesh":8,"name":"CSGPolygon3D23","translation":[-0.44653299450874,0.00245666992850602,3.07869005203247]},{"extensions":{},"mesh":9,"name":"CSGPolygon3D32","translation":[31.9888000488281,0.01592249982059,20.7670001983643]},{"extensions":{},"mesh":10,"name":"CSGPolygon3D42","translation":[31.9888000488281,0.01592249982059,20.7670001983643]},{"extensions":{},"mesh":11,"name":"CSGPolygon3D52","translation":[31.9888000488281,0.01592249982059,20.7670001983643]},{"extensions":{},"mesh":12,"name":"CSGPolygon3D62","translation":[31.9888000488281,0.01592249982059,20.7670001983643]},{"extensions":{},"mesh":13,"name":"CSGPolygon3D72","translation":[31.9888000488281,0.01592249982059,20.7670001983643]},{"extensions":{},"mesh":14,"name":"CSGPolygon3D82","translation":[31.9888000488281,0.01592249982059,20.7670001983643]},{"extensions":{},"mesh":15,"name":"CSGPolygon3D102","translation":[31.9888000488281,0.01592249982059,20.7670001983643]}],"samplers":[{"magFilter":9729,"minFilter":9987,"wrapS":10497,"wrapT":10497}],"scene":0,"scenes":[{"nodes":[0]}],"textures":[{"sampler":0,"source":0},{"sampler":0,"source":1}]}