# Blender 4.0.2
# www.blender.org
mtllib disc.mtl
o Torus.002
v 3.659897 0.000000 0.000000
v 1.000000 0.000000 0.000000
v 0.750000 0.000000 0.000000
v 3.589573 0.000000 -0.714011
v 0.980785 0.000000 -0.195090
v 0.735589 0.000000 -0.146318
v 3.381304 0.000000 -1.400582
v 0.923880 0.000000 -0.382683
v 0.692910 0.000000 -0.287013
v 3.043093 0.000000 -2.033330
v 0.831470 0.000000 -0.555570
v 0.623602 0.000000 -0.416678
v 2.587938 0.000000 -2.587938
v 0.707107 0.000000 -0.707107
v 0.530330 0.000000 -0.530330
v 2.033330 0.000000 -3.043094
v 0.555570 0.000000 -0.831470
v 0.416678 0.000000 -0.623602
v 1.400583 0.000000 -3.381303
v 0.382684 0.000000 -0.923879
v 0.287013 0.000000 -0.692910
v 0.714011 0.000000 -3.589573
v 0.195090 0.000000 -0.980785
v 0.146318 0.000000 -0.735589
v 0.000000 0.000000 -3.659897
v 0.000000 0.000000 -1.000000
v 0.000000 0.000000 -0.750000
v -0.714010 0.000000 -3.589573
v -0.195090 0.000000 -0.980785
v -0.146318 0.000000 -0.735589
v -1.400582 0.000000 -3.381304
v -0.382683 0.000000 -0.923880
v -0.287013 0.000000 -0.692910
v -2.033329 0.000000 -3.043094
v -0.555570 0.000000 -0.831470
v -0.416677 0.000000 -0.623602
v -2.587939 0.000000 -2.587937
v -0.707107 0.000000 -0.707107
v -0.530330 0.000000 -0.530330
v -3.043093 0.000000 -2.033330
v -0.831469 0.000000 -0.555570
v -0.623602 0.000000 -0.416678
v -3.381304 0.000000 -1.400582
v -0.923880 0.000000 -0.382683
v -0.692910 0.000000 -0.287013
v -3.589574 0.000000 -0.714010
v -0.980785 0.000000 -0.195090
v -0.735589 0.000000 -0.146318
v -3.659897 0.000000 -0.000000
v -1.000000 0.000000 -0.000000
v -0.750000 0.000000 -0.000000
v -3.589574 0.000000 0.714011
v -0.980785 0.000000 0.195090
v -0.735589 0.000000 0.146318
v -3.381305 0.000000 1.400581
v -0.923880 0.000000 0.382683
v -0.692910 0.000000 0.287012
v -3.043093 0.000000 2.033331
v -0.831469 0.000000 0.555570
v -0.623602 0.000000 0.416678
v -2.587939 0.000000 2.587938
v -0.707107 0.000000 0.707107
v -0.530330 0.000000 0.530330
v -2.033332 0.000000 3.043092
v -0.555571 0.000000 0.831469
v -0.416678 0.000000 0.623602
v -1.400582 0.000000 3.381304
v -0.382683 0.000000 0.923880
v -0.287013 0.000000 0.692910
v -0.714012 0.000000 3.589573
v -0.195091 0.000000 0.980785
v -0.146318 0.000000 0.735589
v 0.000000 0.000000 3.659897
v 0.000000 0.000000 1.000000
v 0.000000 0.000000 0.750000
v 0.714009 0.000000 3.589574
v 0.195090 0.000000 0.980785
v 0.146318 0.000000 0.735589
v 1.400583 0.000000 3.381303
v 0.382684 0.000000 0.923880
v 0.287013 0.000000 0.692910
v 2.033330 0.000000 3.043094
v 0.555570 0.000000 0.831470
v 0.416678 0.000000 0.623602
v 2.587937 0.000000 2.587940
v 0.707106 0.000000 0.707107
v 0.530330 0.000000 0.530330
v 3.043093 0.000000 2.033330
v 0.831470 0.000000 0.555570
v 0.623602 0.000000 0.416678
v 3.381303 0.000000 1.400583
v 0.923879 0.000000 0.382684
v 0.692910 0.000000 0.287013
v 3.589573 0.000000 0.714010
v 0.980785 0.000000 0.195090
v 0.735589 0.000000 0.146318
vn -0.0000 1.0000 -0.0000
vt 0.500000 0.500000
vt 0.531250 0.500000
vt 0.531250 0.750000
vt 0.500000 0.750000
vt 0.531250 1.000000
vt 0.500000 1.000000
vt 0.562500 0.500000
vt 0.562500 0.750000
vt 0.562500 1.000000
vt 0.593750 0.500000
vt 0.593750 0.750000
vt 0.593750 1.000000
vt 0.625000 0.500000
vt 0.625000 0.750000
vt 0.625000 1.000000
vt 0.656250 0.500000
vt 0.656250 0.750000
vt 0.656250 1.000000
vt 0.687500 0.500000
vt 0.687500 0.750000
vt 0.687500 1.000000
vt 0.718750 0.500000
vt 0.718750 0.750000
vt 0.718750 1.000000
vt 0.750000 0.500000
vt 0.750000 0.750000
vt 0.750000 1.000000
vt 0.781250 0.500000
vt 0.781250 0.750000
vt 0.781250 1.000000
vt 0.812500 0.500000
vt 0.812500 0.750000
vt 0.812500 1.000000
vt 0.843750 0.500000
vt 0.843750 0.750000
vt 0.843750 1.000000
vt 0.875000 0.500000
vt 0.875000 0.750000
vt 0.875000 1.000000
vt 0.906250 0.500000
vt 0.906250 0.750000
vt 0.906250 1.000000
vt 0.937500 0.500000
vt 0.937500 0.750000
vt 0.937500 1.000000
vt 0.968750 0.500000
vt 0.968750 0.750000
vt 0.968750 1.000000
vt 1.000000 0.500000
vt 1.000000 0.750000
vt 1.000000 1.000000
vt 0.000000 0.500000
vt 0.031250 0.500000
vt 0.031250 0.750000
vt 0.000000 0.750000
vt 0.031250 1.000000
vt 0.000000 1.000000
vt 0.062500 0.500000
vt 0.062500 0.750000
vt 0.062500 1.000000
vt 0.093750 0.500000
vt 0.093750 0.750000
vt 0.093750 1.000000
vt 0.125000 0.500000
vt 0.125000 0.750000
vt 0.125000 1.000000
vt 0.156250 0.500000
vt 0.156250 0.750000
vt 0.156250 1.000000
vt 0.187500 0.500000
vt 0.187500 0.750000
vt 0.187500 1.000000
vt 0.218750 0.500000
vt 0.218750 0.750000
vt 0.218750 1.000000
vt 0.250000 0.500000
vt 0.250000 0.750000
vt 0.250000 1.000000
vt 0.281250 0.500000
vt 0.281250 0.750000
vt 0.281250 1.000000
vt 0.312500 0.500000
vt 0.312500 0.750000
vt 0.312500 1.000000
vt 0.343750 0.500000
vt 0.343750 0.750000
vt 0.343750 1.000000
vt 0.375000 0.500000
vt 0.375000 0.750000
vt 0.375000 1.000000
vt 0.406250 0.500000
vt 0.406250 0.750000
vt 0.406250 1.000000
vt 0.437500 0.500000
vt 0.437500 0.750000
vt 0.437500 1.000000
vt 0.468750 0.500000
vt 0.468750 0.750000
vt 0.468750 1.000000
s 0
f 1/1/1 4/2/1 5/3/1 2/4/1
f 2/4/1 5/3/1 6/5/1 3/6/1
f 4/2/1 7/7/1 8/8/1 5/3/1
f 5/3/1 8/8/1 9/9/1 6/5/1
f 7/7/1 10/10/1 11/11/1 8/8/1
f 8/8/1 11/11/1 12/12/1 9/9/1
f 10/10/1 13/13/1 14/14/1 11/11/1
f 11/11/1 14/14/1 15/15/1 12/12/1
f 13/13/1 16/16/1 17/17/1 14/14/1
f 14/14/1 17/17/1 18/18/1 15/15/1
f 16/16/1 19/19/1 20/20/1 17/17/1
f 17/17/1 20/20/1 21/21/1 18/18/1
f 19/19/1 22/22/1 23/23/1 20/20/1
f 20/20/1 23/23/1 24/24/1 21/21/1
f 22/22/1 25/25/1 26/26/1 23/23/1
f 23/23/1 26/26/1 27/27/1 24/24/1
f 25/25/1 28/28/1 29/29/1 26/26/1
f 26/26/1 29/29/1 30/30/1 27/27/1
f 28/28/1 31/31/1 32/32/1 29/29/1
f 29/29/1 32/32/1 33/33/1 30/30/1
f 31/31/1 34/34/1 35/35/1 32/32/1
f 32/32/1 35/35/1 36/36/1 33/33/1
f 34/34/1 37/37/1 38/38/1 35/35/1
f 35/35/1 38/38/1 39/39/1 36/36/1
f 37/37/1 40/40/1 41/41/1 38/38/1
f 38/38/1 41/41/1 42/42/1 39/39/1
f 40/40/1 43/43/1 44/44/1 41/41/1
f 41/41/1 44/44/1 45/45/1 42/42/1
f 43/43/1 46/46/1 47/47/1 44/44/1
f 44/44/1 47/47/1 48/48/1 45/45/1
f 46/46/1 49/49/1 50/50/1 47/47/1
f 47/47/1 50/50/1 51/51/1 48/48/1
f 49/52/1 52/53/1 53/54/1 50/55/1
f 50/55/1 53/54/1 54/56/1 51/57/1
f 52/53/1 55/58/1 56/59/1 53/54/1
f 53/54/1 56/59/1 57/60/1 54/56/1
f 55/58/1 58/61/1 59/62/1 56/59/1
f 56/59/1 59/62/1 60/63/1 57/60/1
f 58/61/1 61/64/1 62/65/1 59/62/1
f 59/62/1 62/65/1 63/66/1 60/63/1
f 61/64/1 64/67/1 65/68/1 62/65/1
f 62/65/1 65/68/1 66/69/1 63/66/1
f 64/67/1 67/70/1 68/71/1 65/68/1
f 65/68/1 68/71/1 69/72/1 66/69/1
f 67/70/1 70/73/1 71/74/1 68/71/1
f 68/71/1 71/74/1 72/75/1 69/72/1
f 70/73/1 73/76/1 74/77/1 71/74/1
f 71/74/1 74/77/1 75/78/1 72/75/1
f 73/76/1 76/79/1 77/80/1 74/77/1
f 74/77/1 77/80/1 78/81/1 75/78/1
f 76/79/1 79/82/1 80/83/1 77/80/1
f 77/80/1 80/83/1 81/84/1 78/81/1
f 79/82/1 82/85/1 83/86/1 80/83/1
f 80/83/1 83/86/1 84/87/1 81/84/1
f 82/85/1 85/88/1 86/89/1 83/86/1
f 83/86/1 86/89/1 87/90/1 84/87/1
f 85/88/1 88/91/1 89/92/1 86/89/1
f 86/89/1 89/92/1 90/93/1 87/90/1
f 88/91/1 91/94/1 92/95/1 89/92/1
f 89/92/1 92/95/1 93/96/1 90/93/1
f 91/94/1 94/97/1 95/98/1 92/95/1
f 92/95/1 95/98/1 96/99/1 93/96/1
f 94/97/1 1/1/1 2/4/1 95/98/1
f 95/98/1 2/4/1 3/6/1 96/99/1
