# Blender 4.1.1
# www.blender.org
o Cylinder
v 0.000000 0.000892 0.000000
v 0.000000 0.154160 0.000000
v 0.000000 0.000892 -0.017418
v 0.000000 0.153983 -0.017418
v 0.010249 0.000892 -0.016801
v 0.012316 0.148056 -0.012316
v 0.017385 0.000892 -0.005025
v 0.017418 0.145756 0.000000
v 0.008255 0.000892 0.007640
v 0.012316 0.145756 0.012316
v -0.003521 0.000892 0.018614
v 0.000000 0.154270 0.017418
v -0.012316 0.000892 0.012316
v -0.012316 0.155073 0.012316
v -0.017418 0.000892 0.000000
v -0.017418 0.160463 0.000000
v -0.013876 0.000892 -0.011284
v -0.012316 0.160463 -0.012316
vn -0.0000 -1.0000 -0.0000
vn 0.4367 0.8996 -0.0091
vn 0.2488 0.0128 -0.9685
vn 0.4345 0.9006 -0.0118
vn 0.8919 0.0083 -0.4522
vn 0.4277 0.8864 0.1772
vn 0.8685 -0.0288 0.4948
vn 0.5672 0.8236 -0.0052
vn 0.5491 -0.0237 0.8354
vn 0.0676 0.9977 -0.0063
vn -0.4748 0.0089 0.8800
vn 0.3284 0.9077 0.2612
vn -0.9239 -0.0000 0.3827
vn 0.3369 0.9311 0.1396
vn -0.9390 0.0035 -0.3439
vn 0.4626 0.8865 -0.0090
vn -0.3945 -0.0011 -0.9189
vt 0.750000 0.250000
vt 0.750000 0.490000
vt 0.919706 0.419706
vt 0.250000 0.250000
vt 0.419706 0.419706
vt 0.250000 0.490000
vt 1.000000 0.500000
vt 1.000000 1.000000
vt 0.875000 1.000000
vt 0.875000 0.500000
vt 0.990000 0.250000
vt 0.490000 0.250000
vt 0.750000 1.000000
vt 0.750000 0.500000
vt 0.919706 0.080294
vt 0.419706 0.080294
vt 0.625000 1.000000
vt 0.625000 0.500000
vt 0.750000 0.010000
vt 0.250000 0.010000
vt 0.500000 1.000000
vt 0.500000 0.500000
vt 0.580294 0.080294
vt 0.080294 0.080294
vt 0.375000 1.000000
vt 0.375000 0.500000
vt 0.510000 0.250000
vt 0.010000 0.250000
vt 0.250000 1.000000
vt 0.250000 0.500000
vt 0.580294 0.419706
vt 0.080294 0.419706
vt 0.125000 1.000000
vt 0.125000 0.500000
vt 0.000000 1.000000
vt 0.000000 0.500000
s 0
f 1/1/1 3/2/1 5/3/1
f 2/4/2 6/5/2 4/6/2
f 3/7/3 4/8/3 6/9/3 5/10/3
f 1/1/1 5/3/1 7/11/1
f 2/4/4 8/12/4 6/5/4
f 5/10/5 6/9/5 8/13/5 7/14/5
f 1/1/1 7/11/1 9/15/1
f 2/4/6 10/16/6 8/12/6
f 7/14/7 8/13/7 10/17/7 9/18/7
f 1/1/1 9/15/1 11/19/1
f 2/4/8 12/20/8 10/16/8
f 9/18/9 10/17/9 12/21/9 11/22/9
f 1/1/1 11/19/1 13/23/1
f 2/4/10 14/24/10 12/20/10
f 11/22/11 12/21/11 14/25/11 13/26/11
f 1/1/1 13/23/1 15/27/1
f 2/4/12 16/28/12 14/24/12
f 13/26/13 14/25/13 16/29/13 15/30/13
f 1/1/1 15/27/1 17/31/1
f 2/4/14 18/32/14 16/28/14
f 15/30/15 16/29/15 18/33/15 17/34/15
f 1/1/1 17/31/1 3/2/1
f 2/4/16 4/6/16 18/32/16
f 17/34/17 18/33/17 4/35/17 3/36/17
