# Blender 4.1.1
# www.blender.org
o Mesh
v 0.493140 -0.000468 0.051601
v 0.278400 0.756496 0.051601
v 0.493140 -0.000468 -0.060696
v 0.266189 0.756496 -0.044116
v 0.585017 0.000427 0.051601
v 0.358065 0.783339 0.051601
v 0.591362 0.000427 -0.036229
v 0.358065 0.783339 -0.044116
v 0.388351 0.338361 0.053017
v 0.388351 0.338361 -0.044116
v 0.476683 0.331213 -0.055540
v 0.480227 0.365204 0.051601
v -0.055818 -0.000468 0.563533
v -0.053884 0.756496 0.336590
v 0.008957 -0.000468 0.564349
v 0.041830 0.756496 0.337406
v -0.056600 0.002869 0.655406
v -0.054667 0.783339 0.428463
v 0.039113 0.002869 0.645332
v 0.041047 0.783339 0.429279
v -0.045115 0.434712 0.413404
v 0.041029 0.434712 0.431414
v 0.040246 0.461555 0.523287
v -0.039801 0.421593 0.487787
v 0.070077 0.001058 -0.509954
v 0.058623 0.756496 -0.273991
v -0.038614 0.001058 -0.509312
v -0.037092 0.756496 -0.282366
v 0.056485 -0.001100 -0.601828
v 0.058007 0.783339 -0.374882
v -0.039230 -0.001100 -0.588437
v -0.050012 0.783339 -0.374240
v 0.057684 0.290644 -0.422957
v -0.038031 0.290644 -0.422315
v -0.038647 0.299603 -0.514190
v 0.043046 0.299603 -0.496516
v -0.504383 0.002585 -0.053071
v -0.278123 0.756496 -0.070769
v -0.496919 0.002585 0.042355
v -0.270659 0.756496 0.024657
v -0.595980 0.001444 -0.045906
v -0.369720 0.783339 -0.051712
v -0.588516 0.001444 0.049519
v -0.345910 0.783339 0.031821
v -0.399985 0.364438 -0.061237
v -0.412872 0.336455 0.034189
v -0.479029 0.362218 0.041353
v -0.476715 0.362218 -0.054072
v 0.000000 0.755348 0.000000
v 0.094413 0.839312 -0.048094
v -0.023599 0.755348 -0.704337
v 0.000000 0.854551 -0.704337
v 0.498042 0.755348 -0.498042
v 0.481161 0.854551 -0.478241
v 0.704337 0.755348 0.000000
v 0.704337 0.865288 0.000000
v 0.498042 0.755348 0.498042
v 0.498042 0.854551 0.498042
v 0.000000 0.755348 0.704337
v 0.000000 0.854551 0.704337
v -0.498042 0.755348 0.498042
v -0.498042 0.854551 0.498042
v -0.704337 0.755348 0.000000
v -0.671971 0.854551 -0.027624
v -0.498042 0.739598 -0.498042
v -0.498042 0.834753 -0.498042
vn -0.9618 -0.2669 0.0609
vn -0.0628 -0.0043 -0.9980
vn 0.9618 0.2669 -0.0615
vn 0.0071 0.0037 1.0000
vn 0.0094 -1.0000 0.0003
vn -0.2986 0.9542 0.0190
vn 0.0077 0.0003 1.0000
vn 0.9533 0.2997 -0.0386
vn 0.0704 0.0190 -0.9973
vn -0.9554 -0.2955 -0.0000
vn 0.0996 -0.2541 -0.9620
vn 1.0000 -0.0000 0.0085
vn -0.2430 0.2076 0.9476
vn -0.9992 -0.0287 0.0296
vn 0.0022 -0.9993 0.0382
vn 0.0024 0.9599 -0.2804
vn -0.9986 0.0432 0.0298
vn -0.2049 0.3106 0.9282
vn 0.9849 -0.0803 -0.1533
vn 0.1176 -0.3124 -0.9427
vn -0.0386 -0.2959 0.9544
vn -0.9972 -0.0308 0.0675
vn 0.0864 0.2597 -0.9618
vn 0.9963 0.0077 -0.0855
vn 0.0017 -0.9997 0.0251
vn -0.0102 0.9631 0.2689
vn 0.9818 0.0963 -0.1636
vn 0.0231 0.2865 -0.9578
vn -1.0000 -0.0000 0.0072
vn 0.0060 -0.2876 0.9577
vn 0.9507 -0.3096 -0.0184
vn 0.0974 -0.0093 0.9952
vn -0.9551 0.2733 0.1147
vn -0.1491 0.0332 -0.9883
vn 0.0124 -0.9999 -0.0010
vn 0.2984 0.9530 -0.0522
vn -0.0849 0.0038 -0.9964
vn -0.9528 0.3026 0.0257
vn 0.0902 -0.0017 0.9959
vn 0.9651 -0.2617 -0.0109
vn -0.0000 -1.0000 -0.0000
vn -0.0117 0.9996 0.0249
vn 0.3947 0.0780 -0.9155
vn -0.0423 0.9991 -0.0027
vn 0.9092 0.1114 -0.4012
vn -0.0428 0.9991 0.0038
vn 0.9239 -0.0000 0.3827
vn -0.0088 0.9997 -0.0214
vn 0.3827 -0.0000 0.9239
vn 0.0080 0.9998 -0.0192
vn -0.3827 -0.0000 0.9239
vn 0.0197 0.9998 -0.0065
vn -0.9190 0.1974 0.3413
vn -0.0000 -0.9995 0.0316
vn 0.0189 0.9992 -0.0351
vn -0.9247 0.1019 -0.3668
vn 0.0327 -0.9995 -0.0011
vn -0.0284 0.9992 0.0273
vn -0.3916 0.0475 -0.9189
vt 0.490431 0.000000
vt 0.625000 0.000000
vt 0.625000 0.250000
vt 0.490431 0.250000
vt 0.625000 0.500000
vt 0.490431 0.500000
vt 0.625000 0.750000
vt 0.490431 0.750000
vt 0.625000 1.000000
vt 0.490431 1.000000
vt 0.125000 0.500000
vt 0.375000 0.500000
vt 0.375000 0.750000
vt 0.125000 0.750000
vt 0.875000 0.500000
vt 0.875000 0.750000
vt 0.375000 1.000000
vt 0.375000 0.250000
vt 0.375000 0.000000
vt 0.521440 0.000000
vt 0.521440 0.250000
vt 0.521440 0.500000
vt 0.521440 0.750000
vt 0.521440 1.000000
vt 0.470834 0.000000
vt 0.470834 0.250000
vt 0.470834 0.500000
vt 0.470834 0.750000
vt 0.470834 1.000000
vt 0.490352 0.000000
vt 0.490352 0.250000
vt 0.490352 0.500000
vt 0.490352 0.750000
vt 0.490352 1.000000
vt 0.750000 0.250000
vt 0.750000 0.490000
vt 0.919706 0.419706
vt 0.250000 0.250000
vt 0.419706 0.419706
vt 0.250000 0.490000
vt 1.000000 0.500000
vt 1.000000 1.000000
vt 0.875000 1.000000
vt 0.990000 0.250000
vt 0.490000 0.250000
vt 0.750000 1.000000
vt 0.750000 0.500000
vt 0.919706 0.080294
vt 0.419706 0.080294
vt 0.750000 0.010000
vt 0.250000 0.010000
vt 0.500000 1.000000
vt 0.500000 0.500000
vt 0.580294 0.080294
vt 0.080294 0.080294
vt 0.510000 0.250000
vt 0.010000 0.250000
vt 0.250000 1.000000
vt 0.250000 0.500000
vt 0.580294 0.419706
vt 0.080294 0.419706
vt 0.125000 1.000000
vt 0.000000 1.000000
vt 0.000000 0.500000
s 0
f 9/1/1 2/2/1 4/3/1 10/4/1
f 10/4/2 4/3/2 8/5/2 11/6/2
f 11/6/3 8/5/3 6/7/3 12/8/3
f 12/8/4 6/7/4 2/9/4 9/10/4
f 3/11/5 7/12/5 5/13/5 1/14/5
f 8/5/6 4/15/6 2/16/6 6/7/6
f 5/13/7 12/8/7 9/10/7 1/17/7
f 7/12/8 11/6/8 12/8/8 5/13/8
f 3/18/9 10/4/9 11/6/9 7/12/9
f 1/19/10 9/1/10 10/4/10 3/18/10
f 21/20/11 14/2/11 16/3/11 22/21/11
f 22/21/12 16/3/12 20/5/12 23/22/12
f 23/22/13 20/5/13 18/7/13 24/23/13
f 24/23/14 18/7/14 14/9/14 21/24/14
f 15/11/15 19/12/15 17/13/15 13/14/15
f 20/5/16 16/15/16 14/16/16 18/7/16
f 17/13/17 24/23/17 21/24/17 13/17/17
f 19/12/18 23/22/18 24/23/18 17/13/18
f 15/18/19 22/21/19 23/22/19 19/12/19
f 13/19/20 21/20/20 22/21/20 15/18/20
f 33/25/21 26/2/21 28/3/21 34/26/21
f 34/26/22 28/3/22 32/5/22 35/27/22
f 35/27/23 32/5/23 30/7/23 36/28/23
f 36/28/24 30/7/24 26/9/24 33/29/24
f 27/11/25 31/12/25 29/13/25 25/14/25
f 32/5/26 28/15/26 26/16/26 30/7/26
f 29/13/27 36/28/27 33/29/27 25/17/27
f 31/12/28 35/27/28 36/28/28 29/13/28
f 27/18/29 34/26/29 35/27/29 31/12/29
f 25/19/30 33/25/30 34/26/30 27/18/30
f 45/30/31 38/2/31 40/3/31 46/31/31
f 46/31/32 40/3/32 44/5/32 47/32/32
f 47/32/33 44/5/33 42/7/33 48/33/33
f 48/33/34 42/7/34 38/9/34 45/34/34
f 39/11/35 43/12/35 41/13/35 37/14/35
f 44/5/36 40/15/36 38/16/36 42/7/36
f 41/13/37 48/33/37 45/34/37 37/17/37
f 43/12/38 47/32/38 48/33/38 41/13/38
f 39/18/39 46/31/39 47/32/39 43/12/39
f 37/19/40 45/30/40 46/31/40 39/18/40
f 49/35/41 51/36/41 53/37/41
f 50/38/42 54/39/42 52/40/42
f 51/41/43 52/42/43 54/43/43 53/15/43
f 49/35/41 53/37/41 55/44/41
f 50/38/44 56/45/44 54/39/44
f 53/15/45 54/43/45 56/46/45 55/47/45
f 49/35/41 55/44/41 57/48/41
f 50/38/46 58/49/46 56/45/46
f 55/47/47 56/46/47 58/9/47 57/5/47
f 49/35/41 57/48/41 59/50/41
f 50/38/48 60/51/48 58/49/48
f 57/5/49 58/9/49 60/52/49 59/53/49
f 49/35/41 59/50/41 61/54/41
f 50/38/50 62/55/50 60/51/50
f 59/53/51 60/52/51 62/17/51 61/12/51
f 49/35/41 61/54/41 63/56/41
f 50/38/52 64/57/52 62/55/52
f 61/12/53 62/17/53 64/58/53 63/59/53
f 49/35/54 63/56/54 65/60/54
f 50/38/55 66/61/55 64/57/55
f 63/59/56 64/58/56 66/62/56 65/11/56
f 49/35/57 65/60/57 51/36/57
f 50/38/58 52/40/58 66/61/58
f 65/11/59 66/62/59 52/63/59 51/64/59
