# Blender 4.1.1
# www.blender.org
o Mesh
v 0.223800 0.007797 0.036696
v 0.095494 0.460080 0.036696
v 0.223800 0.007797 -0.030401
v 0.088198 0.460080 -0.020495
v 0.278696 0.008331 0.036696
v 0.143094 0.476119 0.036696
v 0.282487 0.008331 -0.015782
v 0.143094 0.476119 -0.020495
v 0.161189 0.210246 0.037542
v 0.161189 0.210246 -0.020495
v 0.213967 0.205975 -0.027320
v 0.216085 0.226284 0.036696
v -0.075041 0.008709 -0.221568
v -0.012498 0.460080 -0.095027
v -0.131611 0.008709 -0.189668
v -0.064911 0.460080 -0.071604
v -0.108819 0.007419 -0.265595
v -0.042119 0.476119 -0.147531
v -0.154911 0.007419 -0.230807
v -0.098338 0.476119 -0.115827
v -0.056248 0.181735 -0.172541
v -0.106042 0.181735 -0.144410
v -0.133045 0.187088 -0.192206
v -0.085254 0.187088 -0.206701
v -0.198469 0.009621 0.108739
v -0.095645 0.460080 0.020334
v -0.161184 0.009621 0.152105
v -0.058361 0.460080 0.063701
v -0.240095 0.008939 0.144528
v -0.133073 0.476119 0.061856
v -0.202810 0.008939 0.187894
v -0.092107 0.476119 0.093719
v -0.151025 0.225827 0.067948
v -0.123551 0.209107 0.118499
v -0.152914 0.224500 0.145307
v -0.185485 0.224500 0.098489
v -0.005559 0.450264 -0.010715
v 0.033719 0.498122 -0.030723
v -0.015377 0.450264 -0.303731
v -0.005559 0.506808 -0.303731
v 0.201635 0.450264 -0.217909
v 0.194612 0.506808 -0.209671
v 0.287457 0.450264 -0.010715
v 0.287457 0.512928 -0.010715
v 0.201635 0.450264 0.196479
v 0.201635 0.506808 0.196479
v -0.005559 0.450264 0.282301
v -0.005559 0.506808 0.282301
v -0.212753 0.450264 0.196479
v -0.212753 0.506808 0.196479
v -0.298575 0.450264 -0.010715
v -0.285110 0.506808 -0.022207
v -0.212753 0.441286 -0.217909
v -0.212753 0.495524 -0.217909
vn -0.9618 -0.2669 0.0609
vn -0.0628 -0.0043 -0.9980
vn 0.9618 0.2669 -0.0615
vn 0.0071 0.0037 1.0000
vn 0.0094 -1.0000 0.0003
vn -0.2986 0.9542 0.0190
vn 0.0077 0.0003 1.0000
vn 0.9533 0.2997 -0.0386
vn 0.0704 0.0190 -0.9973
vn -0.9554 -0.2955 -0.0000
vn 0.4302 -0.2959 0.8529
vn -0.8387 -0.0308 0.5436
vn -0.3920 0.2597 -0.8825
vn 0.8291 0.0077 -0.5590
vn 0.0137 -0.9997 0.0211
vn 0.1218 0.9631 0.2400
vn 0.7785 0.0963 -0.6202
vn -0.4453 0.2865 -0.8483
vn -0.8704 -0.0000 0.4923
vn 0.4707 -0.2876 0.8341
vn 0.7562 -0.3096 -0.5765
vn 0.6666 -0.0093 0.7454
vn -0.7028 0.2733 0.6568
vn -0.7042 0.0332 -0.7092
vn 0.0094 -0.9999 -0.0081
vn 0.2100 0.9530 -0.2184
vn -0.6572 0.0038 -0.7537
vn -0.7535 0.3026 0.5837
vn 0.6612 -0.0017 0.7502
vn 0.7722 -0.2617 -0.5790
vn -0.0000 -1.0000 -0.0000
vn -0.0160 0.9993 0.0341
vn 0.3953 0.0570 -0.9168
vn -0.0580 0.9983 -0.0037
vn 0.9118 0.0815 -0.4024
vn -0.0587 0.9983 0.0052
vn 0.9239 -0.0000 0.3827
vn -0.0121 0.9995 -0.0293
vn 0.3827 -0.0000 0.9239
vn 0.0109 0.9996 -0.0264
vn -0.3827 -0.0000 0.9239
vn 0.0270 0.9996 -0.0089
vn -0.9275 0.1454 0.3445
vn -0.0000 -0.9991 0.0433
vn 0.0259 0.9985 -0.0480
vn -0.9270 0.0745 -0.3677
vn 0.0448 -0.9990 -0.0015
vn -0.0389 0.9985 0.0374
vn -0.3918 0.0347 -0.9194
vt 0.490431 0.000000
vt 0.625000 0.000000
vt 0.625000 0.250000
vt 0.490431 0.250000
vt 0.625000 0.500000
vt 0.490431 0.500000
vt 0.625000 0.750000
vt 0.490431 0.750000
vt 0.625000 1.000000
vt 0.490431 1.000000
vt 0.125000 0.500000
vt 0.375000 0.500000
vt 0.375000 0.750000
vt 0.125000 0.750000
vt 0.875000 0.500000
vt 0.875000 0.750000
vt 0.375000 1.000000
vt 0.375000 0.250000
vt 0.375000 0.000000
vt 0.470834 0.000000
vt 0.470834 0.250000
vt 0.470834 0.500000
vt 0.470834 0.750000
vt 0.470834 1.000000
vt 0.490352 0.000000
vt 0.490352 0.250000
vt 0.490352 0.500000
vt 0.490352 0.750000
vt 0.490352 1.000000
vt 0.750000 0.250000
vt 0.750000 0.490000
vt 0.919706 0.419706
vt 0.250000 0.250000
vt 0.419706 0.419706
vt 0.250000 0.490000
vt 1.000000 0.500000
vt 1.000000 1.000000
vt 0.875000 1.000000
vt 0.990000 0.250000
vt 0.490000 0.250000
vt 0.750000 1.000000
vt 0.750000 0.500000
vt 0.919706 0.080294
vt 0.419706 0.080294
vt 0.750000 0.010000
vt 0.250000 0.010000
vt 0.500000 1.000000
vt 0.500000 0.500000
vt 0.580294 0.080294
vt 0.080294 0.080294
vt 0.510000 0.250000
vt 0.010000 0.250000
vt 0.250000 1.000000
vt 0.250000 0.500000
vt 0.580294 0.419706
vt 0.080294 0.419706
vt 0.125000 1.000000
vt 0.000000 1.000000
vt 0.000000 0.500000
s 0
f 9/1/1 2/2/1 4/3/1 10/4/1
f 10/4/2 4/3/2 8/5/2 11/6/2
f 11/6/3 8/5/3 6/7/3 12/8/3
f 12/8/4 6/7/4 2/9/4 9/10/4
f 3/11/5 7/12/5 5/13/5 1/14/5
f 8/5/6 4/15/6 2/16/6 6/7/6
f 5/13/7 12/8/7 9/10/7 1/17/7
f 7/12/8 11/6/8 12/8/8 5/13/8
f 3/18/9 10/4/9 11/6/9 7/12/9
f 1/19/10 9/1/10 10/4/10 3/18/10
f 21/20/11 14/2/11 16/3/11 22/21/11
f 22/21/12 16/3/12 20/5/12 23/22/12
f 23/22/13 20/5/13 18/7/13 24/23/13
f 24/23/14 18/7/14 14/9/14 21/24/14
f 15/11/15 19/12/15 17/13/15 13/14/15
f 20/5/16 16/15/16 14/16/16 18/7/16
f 17/13/17 24/23/17 21/24/17 13/17/17
f 19/12/18 23/22/18 24/23/18 17/13/18
f 15/18/19 22/21/19 23/22/19 19/12/19
f 13/19/20 21/20/20 22/21/20 15/18/20
f 33/25/21 26/2/21 28/3/21 34/26/21
f 34/26/22 28/3/22 32/5/22 35/27/22
f 35/27/23 32/5/23 30/7/23 36/28/23
f 36/28/24 30/7/24 26/9/24 33/29/24
f 27/11/25 31/12/25 29/13/25 25/14/25
f 32/5/26 28/15/26 26/16/26 30/7/26
f 29/13/27 36/28/27 33/29/27 25/17/27
f 31/12/28 35/27/28 36/28/28 29/13/28
f 27/18/29 34/26/29 35/27/29 31/12/29
f 25/19/30 33/25/30 34/26/30 27/18/30
f 37/30/31 39/31/31 41/32/31
f 38/33/32 42/34/32 40/35/32
f 39/36/33 40/37/33 42/38/33 41/15/33
f 37/30/31 41/32/31 43/39/31
f 38/33/34 44/40/34 42/34/34
f 41/15/35 42/38/35 44/41/35 43/42/35
f 37/30/31 43/39/31 45/43/31
f 38/33/36 46/44/36 44/40/36
f 43/42/37 44/41/37 46/9/37 45/5/37
f 37/30/31 45/43/31 47/45/31
f 38/33/38 48/46/38 46/44/38
f 45/5/39 46/9/39 48/47/39 47/48/39
f 37/30/31 47/45/31 49/49/31
f 38/33/40 50/50/40 48/46/40
f 47/48/41 48/47/41 50/17/41 49/12/41
f 37/30/31 49/49/31 51/51/31
f 38/33/42 52/52/42 50/50/42
f 49/12/43 50/17/43 52/53/43 51/54/43
f 37/30/44 51/51/44 53/55/44
f 38/33/45 54/56/45 52/52/45
f 51/54/46 52/53/46 54/57/46 53/11/46
f 37/30/47 53/55/47 39/31/47
f 38/33/48 40/35/48 54/56/48
f 53/11/49 54/57/49 40/58/49 39/59/49
